<?xml version="1.0" encoding="UTF-8"?>
<svg version="1.1" xmlns="http://www.w3.org/2000/svg" width="500" height="500">
<path d="M0 0 C1.78133789 0.63606839 3.57035252 1.25054634 5.36035156 1.86181641 C27.34270392 9.73650719 46.88825522 23.24183699 65.00878906 37.71728516 C65.95109375 38.42884766 66.89339844 39.14041016 67.86425781 39.87353516 C68.92580078 40.78619141 68.92580078 40.78619141 70.00878906 41.71728516 C70.00878906 42.37728516 70.00878906 43.03728516 70.00878906 43.71728516 C70.66878906 43.71728516 71.32878906 43.71728516 72.00878906 43.71728516 C72.00878906 44.37728516 72.00878906 45.03728516 72.00878906 45.71728516 C72.84410156 46.05759766 72.84410156 46.05759766 73.69628906 46.40478516 C76.67038494 48.09278552 78.72887771 50.18405032 81.00878906 52.71728516 C81.00878906 53.37728516 81.00878906 54.03728516 81.00878906 54.71728516 C81.66878906 54.71728516 82.32878906 54.71728516 83.00878906 54.71728516 C83.00878906 55.37728516 83.00878906 56.03728516 83.00878906 56.71728516 C83.66878906 56.71728516 84.32878906 56.71728516 85.00878906 56.71728516 C86.51660156 58.17822266 86.51660156 58.17822266 88.13378906 60.09228516 C88.94203125 61.03201172 88.94203125 61.03201172 89.76660156 61.99072266 C91.00878906 63.71728516 91.00878906 63.71728516 91.00878906 65.71728516 C91.66878906 65.71728516 92.32878906 65.71728516 93.00878906 65.71728516 C94.39873572 67.67836294 95.72195642 69.68705376 97.00878906 71.71728516 C98.40282302 73.69771963 99.79873832 75.67683083 101.19628906 77.65478516 C109.3807027 89.42137233 116.3244863 101.55745127 122.00878906 114.71728516 C122.79576172 116.52132812 122.79576172 116.52132812 123.59863281 118.36181641 C130.23327177 134.21404536 134.09528912 150.81688691 137.00878906 167.71728516 C137.18885498 168.75755859 137.18885498 168.75755859 137.37255859 169.81884766 C142.89783271 203.41514931 138.12484149 238.84392437 126.72607422 270.70849609 C126.09000583 272.48983399 125.47552788 274.27884861 124.86425781 276.06884766 C117.13877002 297.63469696 104.02788533 316.80289697 90.00878906 334.71728516 C89.54666016 335.31154297 89.08453125 335.90580078 88.60839844 336.51806641 C87.45689975 337.95786125 86.23835754 339.34356037 85.00878906 340.71728516 C84.34878906 340.71728516 83.68878906 340.71728516 83.00878906 340.71728516 C83.00878906 341.37728516 83.00878906 342.03728516 83.00878906 342.71728516 C82.34878906 342.71728516 81.68878906 342.71728516 81.00878906 342.71728516 C80.75097656 343.29994141 80.49316406 343.88259766 80.22753906 344.48291016 C78.9104489 346.89757546 77.45790522 348.53468693 75.50878906 350.46728516 C74.90035156 351.08087891 74.29191406 351.69447266 73.66503906 352.32666016 C72.00878906 353.71728516 72.00878906 353.71728516 70.00878906 353.71728516 C70.00878906 354.37728516 70.00878906 355.03728516 70.00878906 355.71728516 C67.9416804 357.50978522 65.86857382 359.18555747 63.69628906 360.84228516 C63.05908936 361.33438477 62.42188965 361.82648438 61.76538086 362.33349609 C49.49445136 371.76960298 37.17389256 380.39573938 23.21582031 387.15869141 C20.78169515 388.34165845 18.39554152 389.56969123 16.00878906 390.84228516 C11.3750887 393.16912176 6.46254671 394.77592597 1.57128906 396.47119141 C-0.94731677 397.35215112 -3.43483646 398.26297479 -5.92480469 399.21728516 C-45.5010258 414.08562116 -94.00239849 413.8791554 -133.99121094 400.71728516 C-135.46412598 400.23533691 -135.46412598 400.23533691 -136.96679688 399.74365234 C-149.94850692 395.42696668 -162.22046666 390.72047397 -173.99121094 383.71728516 C-175.27453343 382.97677965 -176.55840427 382.23722377 -177.84277344 381.49853516 C-188.4812636 375.31410766 -198.24684337 368.2378341 -207.79980469 360.47900391 C-209.25504661 359.30910353 -210.74854879 358.18520677 -212.27636719 357.11181641 C-213.12521484 356.42152344 -213.12521484 356.42152344 -213.99121094 355.71728516 C-213.99121094 355.05728516 -213.99121094 354.39728516 -213.99121094 353.71728516 C-214.65121094 353.71728516 -215.31121094 353.71728516 -215.99121094 353.71728516 C-215.99121094 353.05728516 -215.99121094 352.39728516 -215.99121094 351.71728516 C-216.82652344 351.37697266 -216.82652344 351.37697266 -217.67871094 351.02978516 C-220.65280681 349.34178479 -222.71129959 347.25051999 -224.99121094 344.71728516 C-224.99121094 344.05728516 -224.99121094 343.39728516 -224.99121094 342.71728516 C-225.65121094 342.71728516 -226.31121094 342.71728516 -226.99121094 342.71728516 C-226.99121094 342.05728516 -226.99121094 341.39728516 -226.99121094 340.71728516 C-227.65121094 340.71728516 -228.31121094 340.71728516 -228.99121094 340.71728516 C-230.49902344 339.25634766 -230.49902344 339.25634766 -232.11621094 337.34228516 C-232.65503906 336.71580078 -233.19386719 336.08931641 -233.74902344 335.44384766 C-234.99121094 333.71728516 -234.99121094 333.71728516 -234.99121094 331.71728516 C-235.65121094 331.71728516 -236.31121094 331.71728516 -236.99121094 331.71728516 C-238.4034651 329.74640602 -239.6990932 327.76553105 -240.99121094 325.71728516 C-241.92210261 324.32397658 -242.85725956 322.93351144 -243.79589844 321.54541016 C-252.24040842 308.97223019 -259.88630092 296.60358307 -265.99121094 282.71728516 C-266.508125 281.54294922 -267.02503906 280.36861328 -267.55761719 279.15869141 C-274.1984952 263.32808665 -278.64640229 246.71421197 -280.99121094 229.71728516 C-281.14565674 228.64075684 -281.14565674 228.64075684 -281.30322266 227.54248047 C-286.4988846 190.16326328 -281.62671227 151.5165619 -266.99121094 116.71728516 C-266.69520996 116.0123291 -266.39920898 115.30737305 -266.09423828 114.58105469 C-259.26500947 98.63880849 -250.35445975 83.46945391 -239.63574219 69.83447266 C-237.96241569 67.82260259 -237.96241569 67.82260259 -236.99121094 65.71728516 C-236.33121094 65.71728516 -235.67121094 65.71728516 -234.99121094 65.71728516 C-234.61996094 64.88197266 -234.61996094 64.88197266 -234.24121094 64.02978516 C-232.76196276 61.29317602 -231.05653654 59.04077646 -228.99121094 56.71728516 C-228.33121094 56.71728516 -227.67121094 56.71728516 -226.99121094 56.71728516 C-226.99121094 56.05728516 -226.99121094 55.39728516 -226.99121094 54.71728516 C-226.33121094 54.71728516 -225.67121094 54.71728516 -224.99121094 54.71728516 C-224.76433594 54.16041016 -224.53746094 53.60353516 -224.30371094 53.02978516 C-222.61571058 50.05568928 -220.52444577 47.99719651 -217.99121094 45.71728516 C-217.33121094 45.71728516 -216.67121094 45.71728516 -215.99121094 45.71728516 C-215.99121094 45.05728516 -215.99121094 44.39728516 -215.99121094 43.71728516 C-215.33121094 43.71728516 -214.67121094 43.71728516 -213.99121094 43.71728516 C-213.99121094 43.05728516 -213.99121094 42.39728516 -213.99121094 41.71728516 C-211.98748595 39.9632645 -209.9784754 38.33207291 -207.86621094 36.71728516 C-207.23674561 36.2303418 -206.60728027 35.74339844 -205.95874023 35.24169922 C-199.42661031 30.22260647 -192.76568131 25.4029605 -185.99121094 20.71728516 C-185.11464844 20.10240234 -184.23808594 19.48751953 -183.33496094 18.85400391 C-174.76703063 13.10238402 -165.39098419 8.90956014 -155.99121094 4.71728516 C-155.33604492 4.4243457 -154.68087891 4.13140625 -154.00585938 3.82958984 C-105.85183843 -17.36432997 -49.18793128 -17.59577333 0 0 Z " fill="#EADED0" transform="translate(321.9912109375,51.28271484375)"/>
<path d="M0 0 C2.16324372 0.01605285 4.32460599 0.00006559 6.48779297 -0.01904297 C19.84856065 -0.04024753 32.52135716 2.19360468 45.29638672 6.14111328 C46.54621338 6.52299805 46.54621338 6.52299805 47.82128906 6.91259766 C59.67457156 10.64598616 70.88377902 15.55898121 81.29638672 22.39111328 C82.05177734 22.87322266 82.80716797 23.35533203 83.58544922 23.85205078 C85.85314605 25.32488481 88.08048538 26.8415595 90.29638672 28.39111328 C91.32119141 29.10460937 91.32119141 29.10460937 92.36669922 29.83251953 C103.21493928 37.81858555 113.2498931 47.89520771 120.29638672 59.39111328 C120.80298828 60.18775391 121.30958984 60.98439453 121.83154297 61.80517578 C128.23160842 72.1173017 133.28346037 82.94291584 137.29638672 94.39111328 C137.54517578 95.09751953 137.79396484 95.80392578 138.05029297 96.53173828 C140.18770709 103.64648738 140.45332947 111.92028503 138.10888672 118.95361328 C135.39378563 122.60495613 132.92374069 125.06289674 128.37168884 125.98098755 C126.75068016 126.04308914 126.75068016 126.04308914 125.09692383 126.10644531 C123.84990692 126.16173401 122.60289001 126.21702271 121.31808472 126.27398682 C119.97753595 126.3136162 118.63696951 126.352652 117.29638672 126.39111328 C115.99138214 126.4434613 114.68637756 126.49580933 113.34182739 126.54974365 C108.72479179 126.72687648 104.10697208 126.84104289 99.48779297 126.94580078 C98.13417254 126.97720469 98.13417254 126.97720469 96.75320625 127.00924301 C64.64113306 127.72327659 32.51070101 127.54105082 0.39269221 127.51968265 C-6.89039871 127.51534491 -14.17347228 127.51844222 -21.4565621 127.52331078 C-28.60685879 127.52789235 -35.75714816 127.52846915 -42.90744585 127.52587211 C-47.12577656 127.52434126 -51.34409572 127.52402548 -55.56242561 127.5274086 C-124.18551979 127.57477686 -124.18551979 127.57477686 -129.70361328 122.39111328 C-134.0663997 116.51146403 -134.70414502 110.50893117 -133.70361328 103.39111328 C-131.03583197 92.21240134 -126.50493815 81.79628994 -121.70361328 71.39111328 C-121.04361328 71.39111328 -120.38361328 71.39111328 -119.70361328 71.39111328 C-119.49736328 70.58673828 -119.29111328 69.78236328 -119.07861328 68.95361328 C-117.26750127 64.26118672 -114.58977647 60.48460711 -111.70361328 56.39111328 C-111.26533203 55.74529297 -110.82705078 55.09947266 -110.37548828 54.43408203 C-107.79517933 50.68610163 -104.97339728 47.57705666 -101.70361328 44.39111328 C-101.10548828 43.56611328 -100.50736328 42.74111328 -99.89111328 41.89111328 C-97.36045266 38.99892971 -94.72529717 37.39233212 -91.41064453 35.50439453 C-89.54335609 34.49133499 -89.54335609 34.49133499 -88.70361328 32.39111328 C-88.04361328 32.39111328 -87.38361328 32.39111328 -86.70361328 32.39111328 C-86.52185547 31.83552734 -86.34009766 31.27994141 -86.15283203 30.70751953 C-83.98673905 27.24527387 -80.90800421 25.51449855 -77.51611328 23.32861328 C-76.86835938 22.89484375 -76.22060547 22.46107422 -75.55322266 22.01416016 C-71.39935123 19.287793 -67.29581589 17.27495383 -62.70361328 15.39111328 C-61.23095368 14.58336688 -59.7703503 13.75284115 -58.32861328 12.89111328 C-49.9004709 8.16175366 -40.50230827 6.13874482 -31.14794922 3.96386719 C-29.31286015 3.53387129 -27.4836217 3.07878136 -25.65771484 2.61132812 C-16.99164797 0.52835318 -8.85750913 -0.07778493 0 0 Z " fill="#789FE5" transform="translate(246.70361328125,246.60888671875)"/>
<path d="M0 0 C3.16916559 0.49558455 6.18124293 0.52715778 9.38671875 0.43359375 C10.35673828 0.4078125 11.32675781 0.38203125 12.32617188 0.35546875 C14.32152507 0.29331628 16.31645302 0.21536477 18.31054688 0.12109375 C29.18043861 -0.10910912 36.86964695 4.73233608 45.0234375 11.51171875 C45.8278125 12.17042969 46.6321875 12.82914063 47.4609375 13.5078125 C60.96577425 25.05691832 69.74523634 40.24305072 71.24267578 58.13061523 C72.17172933 79.17037404 68.03819945 98.1988539 53.5234375 114.07421875 C39.86259859 128.31061585 22.60563508 136.16505076 2.8359375 137.01171875 C-14.61939935 136.57624257 -32.62543401 130.18282466 -44.9765625 117.51171875 C-45.55664062 116.91875 -46.13671875 116.32578125 -46.734375 115.71484375 C-51.30892128 110.76403609 -54.65976792 105.35423335 -57.9765625 99.51171875 C-58.48316406 98.70992188 -58.98976562 97.908125 -59.51171875 97.08203125 C-66.46287104 84.88507604 -67.62891318 66.01046511 -63.9765625 52.51171875 C-62.9865625 51.85171875 -61.9965625 51.19171875 -60.9765625 50.51171875 C-61.2034375 49.95484375 -61.4303125 49.39796875 -61.6640625 48.82421875 C-62.10036932 45.59554827 -60.66777204 44.21765401 -58.9765625 41.51171875 C-58.9765625 40.19171875 -58.9765625 38.87171875 -58.9765625 37.51171875 C-58.3165625 36.52171875 -57.6565625 35.53171875 -56.9765625 34.51171875 C-56.76257813 33.62484375 -56.54859375 32.73796875 -56.328125 31.82421875 C-54.3678099 27.01974706 -51.04466672 24.07747455 -47.3515625 20.51171875 C-46.66449219 19.8259375 -45.97742188 19.14015625 -45.26953125 18.43359375 C-37.45790845 10.75387452 -26.66892157 0.92208073 -15.0390625 0.4296875 C-13.66515407 0.442698 -12.29130598 0.4700235 -10.91796875 0.51171875 C-8.77585166 0.57017175 -8.77585166 0.57017175 -5.9140625 -0.05078125 C-2.9765625 -0.48828125 -2.9765625 -0.48828125 0 0 Z " fill="#DBA893" transform="translate(246.9765625,95.48828125)"/>
<path d="M0 0 C-0.495 0.433125 -0.99 0.86625 -1.5 1.3125 C-3.33218192 2.99740483 -3.33218192 2.99740483 -3 6 C-3.66 6 -4.32 6 -5 6 C-4.34 6.66 -3.68 7.32 -3 8 C-1.35 7.34 0.3 6.68 2 6 C2.33 7.32 2.66 8.64 3 10 C3.680625 9.938125 4.36125 9.87625 5.0625 9.8125 C8.91936125 10.05868263 11.51079594 11.35802162 15 13 C15.33 12.34 15.66 11.68 16 11 C21.19432248 9.41529145 26.57858775 8.71466251 32 9 C32 8.34 32 7.68 32 7 C29.69 7 27.38 7 25 7 C25 6.34 25 5.68 25 5 C24.34 5 23.68 5 23 5 C23 4.34 23 3.68 23 3 C24.65 2.67 26.3 2.34 28 2 C28.495 2.99 28.495 2.99 29 4 C31.52733235 4.65555119 31.52733235 4.65555119 34 5 C34 5.66 34 6.32 34 7 C36.64 7 39.28 7 42 7 C42.495 7.99 42.495 7.99 43 9 C45.80478195 9.91485573 45.80478195 9.91485573 49.0625 10.625 C50.71958984 11.01558594 50.71958984 11.01558594 52.41015625 11.4140625 C53.26480469 11.60742188 54.11945313 11.80078125 55 12 C55 11.01 55 10.02 55 9 C55.99040283 9.32452148 56.98080566 9.64904297 58.0012207 9.98339844 C61.98797672 11.11741682 65.85453664 11.28965799 69.98046875 11.265625 C70.71574295 11.26753845 71.45101715 11.2694519 72.20857239 11.27142334 C73.75062404 11.27277534 75.29268746 11.26914826 76.8347168 11.26074219 C79.19150241 11.24998173 81.54753391 11.26069427 83.90429688 11.2734375 C85.40885584 11.27211663 86.91341434 11.26955574 88.41796875 11.265625 C89.11907272 11.26967346 89.8201767 11.27372192 90.54252625 11.27789307 C94.19330072 11.24290474 96.89460681 11.00104364 100 9 C100.99 9.99 100.99 9.99 102 11 C105.27559304 11.67984006 108.01520111 12.21292949 111.3125 11.5 C114.09725757 10.98190557 115.90632897 11.21778804 118.6875 11.625 C123.45892848 12.2046402 126.7775792 11.42071719 131.1875 9.59375 C134.63790818 8.86533049 137.44359351 9.26290476 140.92578125 9.68017578 C147.42531279 10.35635004 153.9712061 10.48515826 160.5 10.6875 C161.26180573 10.71190155 162.02361145 10.7363031 162.8085022 10.76144409 C176.9844549 11.18880478 190.88993276 10.53685174 205 9 C205 9.33 205 9.66 205 10 C205.61488281 10.06058594 206.22976563 10.12117188 206.86328125 10.18359375 C207.67152344 10.26738281 208.47976563 10.35117187 209.3125 10.4375 C210.11300781 10.51871094 210.91351563 10.59992188 211.73828125 10.68359375 C214 11 214 11 217 12 C218.64371491 12.09329934 220.29114677 12.12995144 221.9375 12.125 C222.79214844 12.12757813 223.64679688 12.13015625 224.52734375 12.1328125 C226.9868384 12.08045385 226.9868384 12.08045385 229.25390625 11.4296875 C229.83011719 11.28789062 230.40632812 11.14609375 231 11 C231.33 11.33 231.66 11.66 232 12 C233.7953052 11.90935756 235.58747875 11.7525121 237.375 11.5625 C240.28338616 11.25938324 243.07425015 11 246 11 C249.37297302 10.09652508 252.68755043 9.10414986 256 8 C257.01754868 6.1346755 257.01754868 6.1346755 257.6875 3.9375 C257.93886719 3.20402344 258.19023437 2.47054688 258.44921875 1.71484375 C258.63097656 1.14894531 258.81273437 0.58304687 259 0 C259.33 0 259.66 0 260 0 C260.34573147 5.76219112 260.34446833 10.04096075 257 15 C253.291302 18.5378199 250.89646754 19.52010458 245.80053711 19.71533203 C244.5535202 19.77062073 243.3065033 19.82590942 242.021698 19.88287354 C240.68114923 19.92250292 239.34058279 19.96153872 238 20 C236.04249313 20.07852203 236.04249313 20.07852203 234.04544067 20.15863037 C229.42840507 20.3357632 224.81058536 20.44992961 220.19140625 20.5546875 C218.83778583 20.5860914 218.83778583 20.5860914 217.45681953 20.61812973 C185.34474634 21.33216331 153.2143143 21.14993754 121.09630549 21.12856936 C113.81321457 21.12423163 106.530141 21.12732894 99.24705118 21.1321975 C92.09675449 21.13677907 84.94646512 21.13735587 77.79616743 21.13475883 C73.57783672 21.13322798 69.35951756 21.1329122 65.14118767 21.13629532 C-3.07613315 21.18338349 -3.07613315 21.18338349 -9 16 C-12.51548553 11.75717264 -12.43340201 8.28750449 -12 3 C-8.48214012 -0.51785988 -4.80656342 -0.10924008 0 0 Z " fill="#284DB9" transform="translate(126,353)"/>
<path d="M0 0 C0.98226562 0.18046875 1.96453125 0.3609375 2.9765625 0.546875 C4.76881566 0.917686 6.56037486 1.29470271 8.33958435 1.72375488 C13.86538685 3.04089158 19.27437361 3.74808072 24.93359375 4.171875 C25.80395767 4.24037659 26.67432159 4.30887817 27.57106018 4.37945557 C29.39176159 4.52048912 31.21272895 4.65812784 33.03393555 4.79248047 C35.83040261 5.00133707 38.62498502 5.22870351 41.41992188 5.45703125 C43.1952275 5.59226635 44.97061588 5.72642041 46.74609375 5.859375 C47.58248886 5.9290448 48.41888397 5.9987146 49.28062439 6.07049561 C51.30804969 6.21174235 53.34268031 6.24101737 55.375 6.25 C56.035 5.59 56.695 4.93 57.375 4.25 C59.921875 4.01953125 59.921875 4.01953125 63.125 4.0625 C64.66414063 4.07216797 64.66414063 4.07216797 66.234375 4.08203125 C69.7029475 4.18458359 73.15083906 4.45695706 76.61010742 4.72631836 C84.65338819 5.3043727 92.69435714 5.59204338 100.75390625 5.796875 C101.94226672 5.82791447 101.94226672 5.82791447 103.15463448 5.85958099 C125.76155984 6.43426585 148.37453556 6.47282659 170.98754883 6.49023438 C177.15058777 6.49579854 183.31341462 6.52007978 189.47638607 6.54820633 C194.29881913 6.56688849 199.12120028 6.57204041 203.94366646 6.57357025 C206.21718113 6.57656425 208.49069562 6.58448012 210.76417351 6.59775543 C221.87488302 6.65823162 232.43414354 6.61731806 243.25294495 3.89471436 C246.69649862 3.18360951 249.86790227 3.21796799 253.375 3.25 C256.20878132 2.3525173 256.20878132 2.3525173 258.375 1.25 C258.01847798 3.83478468 257.61848384 5.0163822 255.71168518 6.84591675 C252.75892575 8.62019088 250.67329195 8.7361362 247.23803711 8.90283203 C245.98199677 8.96714417 244.72595642 9.0314563 243.43185425 9.09771729 C242.07963016 9.15006936 240.72734301 9.20081561 239.375 9.25 C237.41555954 9.33045563 237.41555954 9.33045563 235.41653442 9.41253662 C230.80077908 9.58592292 226.18416897 9.69996173 221.56640625 9.8046875 C220.21278583 9.8360914 220.21278583 9.8360914 218.83181953 9.86812973 C186.71974634 10.58216331 154.5893143 10.39993754 122.47130549 10.37856936 C115.18821457 10.37423163 107.905141 10.37732894 100.62205118 10.3821975 C93.47175449 10.38677907 86.32146512 10.38735587 79.17116743 10.38475883 C74.95283672 10.38322798 70.73451756 10.3829122 66.51618767 10.38629532 C-1.8655589 10.43349699 -1.8655589 10.43349699 -7.625 5.25 C-8.4375 3.0625 -8.4375 3.0625 -8.625 1.25 C-4.97912654 -1.18058231 -4.16991691 -0.79734845 0 0 Z " fill="#404C8A" transform="translate(124.625,363.75)"/>
<path d="M0 0 C0 0.33 0 0.66 0 1 C-1.65 1 -3.3 1 -5 1 C-5 1.66 -5 2.32 -5 3 C-10.03617059 5.70233544 -14.95378254 7.4056161 -20.5625 8.5 C-23.14625844 8.97704633 -23.14625844 8.97704633 -26.125 10.0625 C-28.9427361 10.98132699 -31.07621757 11 -34 11 C-35.47277202 12.21663776 -36.9439392 13.43672043 -38.3671875 14.7109375 C-40.94211231 16.74377288 -42.82449651 18.10724629 -46.18359375 17.80078125 C-47.29927734 17.55908203 -47.29927734 17.55908203 -48.4375 17.3125 C-50.7810217 16.90086646 -50.7810217 16.90086646 -53 17 C-55.77122275 19.35426499 -55.77122275 19.35426499 -58 22 C-58.76699219 21.96261719 -59.53398437 21.92523438 -60.32421875 21.88671875 C-64.126778 22.04770301 -65.38704111 23.7532984 -68.0625 26.375 C-70.95585579 29.18365046 -73.35662954 31.29442218 -77 33 C-77.45375 33.639375 -77.9075 34.27875 -78.375 34.9375 C-80 37 -80 37 -82.9375 38.4375 C-86.42734386 40.21803258 -87.71161148 41.85346579 -90 45 C-90.95059379 46.11083674 -91.90958089 47.21452334 -92.875 48.3125 C-96.11086956 52.07133837 -99.08759471 55.98716885 -102 60 C-102.70125 60.94875 -103.4025 61.8975 -104.125 62.875 C-106.20988682 66.34981137 -107.64400253 69.84896539 -109.0703125 73.6328125 C-109.93413038 75.83228155 -110.93896671 77.89125182 -112 80 C-112.268125 80.845625 -112.53625 81.69125 -112.8125 82.5625 C-114.53059167 87.53592325 -116.77705091 92.23552632 -119 97 C-119.7734375 98.7634375 -119.7734375 98.7634375 -120.5625 100.5625 C-122 103 -122 103 -126 105 C-126 107.97 -126 110.94 -126 114 C-126.33 114 -126.66 114 -127 114 C-128.45651724 98.72275247 -121.24512281 84.534099 -115 71 C-114.34 71 -113.68 71 -113 71 C-112.79375 70.195625 -112.5875 69.39125 -112.375 68.5625 C-110.56388799 63.87007343 -107.88616319 60.09349383 -105 56 C-104.56171875 55.35417969 -104.1234375 54.70835937 -103.671875 54.04296875 C-101.09156605 50.29498835 -98.269784 47.18594338 -95 44 C-94.401875 43.175 -93.80375 42.35 -93.1875 41.5 C-90.65683938 38.60781643 -88.02168389 37.00121884 -84.70703125 35.11328125 C-82.83974281 34.10022171 -82.83974281 34.10022171 -82 32 C-81.34 32 -80.68 32 -80 32 C-79.81824219 31.44441406 -79.63648438 30.88882812 -79.44921875 30.31640625 C-77.28312577 26.85416059 -74.20439093 25.12338527 -70.8125 22.9375 C-70.16474609 22.50373047 -69.51699219 22.06996094 -68.84960938 21.62304688 C-64.69573795 18.89667971 -60.59220261 16.88384055 -56 15 C-54.5273404 14.1922536 -53.06673702 13.36172787 -51.625 12.5 C-42.47565496 7.36594542 -32.12937733 5.39925323 -22 3 C-20.72511719 2.69578125 -19.45023437 2.3915625 -18.13671875 2.078125 C-11.95969163 0.67154095 -6.33751773 -0.38025106 0 0 Z " fill="#B5BFE4" transform="translate(240,247)"/>
<path d="M0 0 C2.3043041 6.44295556 -1.84114628 13.38394268 -4.44140625 19.25390625 C-13.09080245 36.57354057 -27.29136785 47.78505789 -45 55 C-62.15051704 60.56883024 -81.01086789 59.14689982 -97.14453125 51.02734375 C-102.40613601 48.16625007 -107.57155978 45.05603025 -112 41 C-112.3125 37.75 -112.3125 37.75 -112 35 C-110.515 34.505 -110.515 34.505 -109 34 C-109.04125 34.7425 -109.0825 35.485 -109.125 36.25 C-108.99601866 39.08758952 -108.42948778 40.58773938 -107 43 C-105.02 43 -103.04 43 -101 43 C-100.67 43.99 -100.34 44.98 -100 46 C-99.01 46.33 -98.02 46.66 -97 47 C-97 46.34 -97 45.68 -97 45 C-95.68 45.33 -94.36 45.66 -93 46 C-93 46.99 -93 47.98 -93 49 C-88.60563789 49.85743651 -84.47427924 50.08948558 -80 50 C-80 50.66 -80 51.32 -80 52 C-79.4225 51.814375 -78.845 51.62875 -78.25 51.4375 C-75.75194717 50.95176751 -74.43095871 51.39226032 -72 52 C-71.0409375 51.7525 -71.0409375 51.7525 -70.0625 51.5 C-68 51 -68 51 -65.9296875 51.4921875 C-61.91428859 52.18818998 -58.11432977 51.88960929 -54.0625 51.625 C-53.27681641 51.58117187 -52.49113281 51.53734375 -51.68164062 51.4921875 C-47.3937893 51.23383997 -43.22822345 50.80085131 -39 50 C-38.67 49.01 -38.34 48.02 -38 47 C-37.34 46.67 -36.68 46.34 -36 46 C-36 45.01 -36 44.02 -36 43 C-33.69 43.33 -31.38 43.66 -29 44 C-28.9175 43.443125 -28.835 42.88625 -28.75 42.3125 C-27.747146 39.22036682 -26.22502524 37.35216954 -24 35 C-21.75 34.1875 -21.75 34.1875 -20 34 C-20 33.34 -20 32.68 -20 32 C-18.68 31.67 -17.36 31.34 -16 31 C-16 30.01 -16 29.02 -16 28 C-15.38125 27.835 -14.7625 27.67 -14.125 27.5 C-11.56278729 25.69137926 -11.56777153 24.97358877 -10.9375 22 C-10.82277344 21.29875 -10.70804687 20.5975 -10.58984375 19.875 C-10 18 -10 18 -7 16 C-5.61595115 13.53596213 -5.61595115 13.53596213 -4.4375 10.6875 C-3.81681641 9.27017578 -3.81681641 9.27017578 -3.18359375 7.82421875 C-2.0948551 5.22633743 -1.03541074 2.61954147 0 0 Z " fill="#88576D" transform="translate(316,174)"/>
<path d="M0 0 C0.33 0 0.66 0 1 0 C1.3690205 9.41002278 1.3690205 9.41002278 -1 14 C-1.33 13.34 -1.66 12.68 -2 12 C-3.97536745 12.34786708 -3.97536745 12.34786708 -6 13 C-6.33 13.66 -6.66 14.32 -7 15 C-8.02359619 14.96948547 -9.04719238 14.93897095 -10.10180664 14.90753174 C-13.81952849 14.99571907 -16.78288093 15.56831531 -20.37109375 16.47949219 C-31.44844797 18.9410158 -42.78007827 18.39132971 -54.0625 18.328125 C-56.46809775 18.32506093 -58.87369729 18.32318974 -61.27929688 18.32244873 C-66.29189978 18.3178727 -71.3043396 18.30354597 -76.31689453 18.28125 C-82.73353885 18.25284737 -89.15005597 18.24202283 -95.5667572 18.2375679 C-101.7111877 18.23241101 -107.85558648 18.21787994 -114 18.203125 C-115.74834641 18.20030392 -115.74834641 18.20030392 -117.53201294 18.19742584 C-120.83388558 18.19053663 -124.13565924 18.17689461 -127.4375 18.16113281 C-128.40799789 18.16001495 -129.37849579 18.15889709 -130.37840271 18.15774536 C-135.35733619 18.12633358 -140.09144333 17.84682308 -145 17 C-145 16.67 -145 16.34 -145 16 C-134.95199177 14.968214 -125.20064812 15.05953459 -115.12280273 15.68139648 C-114.18637939 15.73497314 -113.24995605 15.7885498 -112.28515625 15.84375 C-111.04584351 15.92399414 -111.04584351 15.92399414 -109.78149414 16.00585938 C-106.83387963 15.99965006 -104.0004659 15.64310804 -101.08268738 15.24819946 C-97.77138265 14.85358236 -94.46460214 14.7762 -91.1328125 14.68359375 C-90.41318329 14.66281265 -89.69355408 14.64203156 -88.95211792 14.62062073 C-87.44127331 14.57771424 -85.93037583 14.53663325 -84.41943359 14.49731445 C-82.13756294 14.43782751 -79.85590657 14.37273733 -77.57421875 14.30664062 C-71.49344515 14.13591064 -65.41989225 13.9721872 -59.3359375 14.03515625 C-55.62687778 14.05440471 -52.1560692 13.67844583 -48.5 13 C-43.62579819 12.17708281 -39.05667552 11.83591309 -34.12109375 12.02734375 C-31.96214245 12.08155105 -31.96214245 12.08155105 -29.78515625 11.44140625 C-29.19605469 11.29574219 -28.60695313 11.15007812 -28 11 C-27.505 11.495 -27.505 11.495 -27 12 C-25.2046948 11.90935756 -23.41252125 11.7525121 -21.625 11.5625 C-18.71661384 11.25938324 -15.92574985 11 -13 11 C-9.62702698 10.09652508 -6.31244957 9.10414986 -3 8 C-1.98245132 6.1346755 -1.98245132 6.1346755 -1.3125 3.9375 C-1.06113281 3.20402344 -0.80976563 2.47054688 -0.55078125 1.71484375 C-0.36902344 1.14894531 -0.18726563 0.58304687 0 0 Z " fill="#2A4FB9" transform="translate(385,353)"/>
<path d="M0 0 C2.18703385 -0.37907282 2.18703385 -0.37907282 4 -1 C4 -0.34 4 0.32 4 1 C5.01191406 0.98839844 6.02382813 0.97679687 7.06640625 0.96484375 C15.02593092 0.90791129 22.96357043 0.97211739 30.91796875 1.29296875 C31.6033522 1.31961105 32.28873566 1.34625336 32.99488831 1.373703 C36.43826161 1.50837441 39.88045444 1.65513492 43.32250977 1.82006836 C44.60311279 1.87171143 45.88371582 1.92335449 47.203125 1.9765625 C48.91483887 2.05511475 48.91483887 2.05511475 50.66113281 2.13525391 C54.46409162 1.98120015 57.39350868 1.17448614 61 0 C61 0.66 61 1.32 61 2 C63.64 2 66.28 2 69 2 C67 5 67 5 64.05078125 5.6953125 C62.81714844 5.83710938 61.58351563 5.97890625 60.3125 6.125 C59.11238281 6.27195312 57.91226563 6.41890625 56.67578125 6.5703125 C55.11791807 6.72128068 53.55917661 6.86326162 52 7 C50.92443848 7.09555176 49.84887695 7.19110352 48.74072266 7.28955078 C39.76032178 7.99335889 30.94027628 8.02448229 21.94628906 7.703125 C19.73781621 7.62456661 17.52921229 7.55752802 15.3203125 7.4921875 C8.24777528 7.26955988 1.21960992 6.93970908 -5.81640625 6.1418457 C-8.26999848 5.90493263 -8.26999848 5.90493263 -11.75 6.5625 C-15.8057862 7.10847122 -18.167385 6.32968276 -22 5 C-22 4.34 -22 3.68 -22 3 C-22.99 2.67 -23.98 2.34 -25 2 C-21.16092617 0.61793342 -17.96236984 1.38514951 -14 2 C-12.0003305 2.03635763 -9.99940538 2.04876598 -8 2 C-8 1.34 -8 0.68 -8 0 C-4.86567988 -1.00746004 -3.13816549 -0.78454137 0 0 Z " fill="#5483DC" transform="translate(267,357)"/>
<path d="M0 0 C6.17045159 0.85336033 10.11639452 4.35936037 15 8 C15.7115625 8.50402344 16.423125 9.00804687 17.15625 9.52734375 C27.98429752 17.46656516 37.97835545 27.54463409 45 39 C45.50660156 39.79664063 46.01320313 40.59328125 46.53515625 41.4140625 C54.76186349 54.66937083 62.65001169 69.12325763 63 85 C62.34 85 61.68 85 61 85 C61 82.03 61 79.06 61 76 C60.34 76 59.68 76 59 76 C58.67 74.02 58.34 72.04 58 70 C57.34 70 56.68 70 56 70 C55.67 70.66 55.34 71.32 55 72 C55 71.01 55 70.02 55 69 C54.01 69 53.02 69 52 69 C52.309375 68.4225 52.61875 67.845 52.9375 67.25 C53.92583364 65.15705816 54.5168613 63.25464725 55 61 C52.42143135 60.07908262 51.4056713 59.81493098 48.859375 60.9765625 C48.24578125 61.31429687 47.6321875 61.65203125 47 62 C47.14230808 60.58297487 47.28900746 59.1663904 47.4375 57.75 C47.51871094 56.96109375 47.59992188 56.1721875 47.68359375 55.359375 C47.97634993 53.17635361 48.42064419 51.1226818 49 49 C48.34 49 47.68 49 47 49 C46.67 47.35 46.34 45.7 46 44 C45.34 44 44.68 44 44 44 C43.505 44.99 43.505 44.99 43 46 C40 44 40 44 39.3125 41.375 C39.1578125 40.199375 39.1578125 40.199375 39 39 C38.01 39.33 37.02 39.66 36 40 C35.896875 39.401875 35.79375 38.80375 35.6875 38.1875 C35.18431337 35.94230887 35.18431337 35.94230887 33.53515625 34.671875 C31.58576442 32.54887321 31.33965685 30.86337004 30.75 28.0625 C29.71993327 24.32373926 28.9702578 22.39932218 25.5625 20.4375 C22.2790002 18.96300057 22.2790002 18.96300057 19.75 18.625 C18 18 18 18 16.25 15.0625 C15 12 15 12 15 10 C13.02 10 11.04 10 9 10 C8.67 10.66 8.34 11.32 8 12 C7.34 12 6.68 12 6 12 C6 9.69 6 7.38 6 5 C5.34 4.67 4.68 4.34 4 4 C4 3.34 4 2.68 4 2 C2.68 1.67 1.36 1.34 0 1 C0 0.67 0 0.34 0 0 Z " fill="#4F80D2" transform="translate(322,267)"/>
<path d="M0 0 C7.59653142 0.8187576 15.19609674 1.08632796 22.828125 1.32421875 C23.96708725 1.36082108 23.96708725 1.36082108 25.12905884 1.39816284 C39.28632074 1.8260794 53.17415807 1.17154457 67.265625 -0.36328125 C67.265625 -0.03328125 67.265625 0.29671875 67.265625 0.63671875 C70.235625 0.96671875 73.205625 1.29671875 76.265625 1.63671875 C71.4154167 6.48692705 65.59924304 5.76166048 59.01123047 5.78198242 C57.97764908 5.78702034 57.97764908 5.78702034 56.92318726 5.79216003 C54.65971024 5.80160325 52.39630797 5.80361099 50.1328125 5.8046875 C48.53402681 5.80790888 46.9352414 5.81127358 45.3364563 5.81477356 C41.98259807 5.8207514 38.62876552 5.82261527 35.27490234 5.82202148 C31.87706109 5.82194077 28.47935621 5.82879461 25.08154297 5.8425293 C-10.94630632 5.98636261 -10.94630632 5.98636261 -28.734375 3.63671875 C-28.404375 2.97671875 -28.074375 2.31671875 -27.734375 1.63671875 C-26.82816406 1.74371094 -25.92195312 1.85070312 -24.98828125 1.9609375 C-18.28516348 2.62060941 -13.28273644 2.89267209 -7.05273438 0.31005859 C-4.42560745 -0.45295911 -2.70543856 -0.34255798 0 0 Z " fill="#3767CE" transform="translate(263.734375,362.36328125)"/>
<path d="M0 0 C-0.3125 1.875 -0.3125 1.875 -1 4 C-4.82196669 6.54797779 -8.11790962 6.44281193 -12.56347656 6.60522461 C-13.41106663 6.64253409 -14.25865669 6.67984358 -15.1319313 6.71828365 C-23.74690599 7.07639901 -32.36313274 7.22300352 -40.984375 7.31640625 C-42.65741296 7.33713318 -44.33044758 7.35813152 -46.003479 7.37937927 C-49.49252993 7.42287672 -52.98159773 7.46380783 -56.47070312 7.50268555 C-60.81176847 7.55115774 -65.15274499 7.60501692 -69.49372387 7.66063976 C-136.84890561 8.51857183 -136.84890561 8.51857183 -165.21801758 7.20043945 C-168.28889927 7.05778977 -171.36014359 6.92749603 -174.43164062 6.79882812 C-183.97244848 6.38898835 -193.49461081 5.94582887 -203 5 C-201 3 -201 3 -198.453125 2.76953125 C-196.86757812 2.79080078 -196.86757812 2.79080078 -195.25 2.8125 C-193.71085938 2.82216797 -193.71085938 2.82216797 -192.140625 2.83203125 C-188.6720525 2.93458359 -185.22416094 3.20695706 -181.76489258 3.47631836 C-173.72161181 4.0543727 -165.68064286 4.34204338 -157.62109375 4.546875 C-156.82885344 4.56756798 -156.03661312 4.58826096 -155.22036552 4.60958099 C-132.61344016 5.18426585 -110.00046444 5.22282659 -87.38745117 5.24023438 C-81.22441223 5.24579854 -75.06158538 5.27007978 -68.89861393 5.29820633 C-64.07618087 5.31688849 -59.25379972 5.32204041 -54.43133354 5.32357025 C-52.15781887 5.32656425 -49.88430438 5.33448012 -47.61082649 5.34775543 C-36.50011698 5.40823162 -25.94085646 5.36731806 -15.12205505 2.64471436 C-12 2 -12 2 -8.28504944 2.03253174 C-4.69927904 1.99702197 -3.32682764 0 0 0 Z " fill="#2844A5" transform="translate(383,365)"/>
<path d="M0 0 C-0.495 0.433125 -0.99 0.86625 -1.5 1.3125 C-3.33218192 2.99740483 -3.33218192 2.99740483 -3 6 C-3.66 6 -4.32 6 -5 6 C-4.34 6.66 -3.68 7.32 -3 8 C-1.35 7.34 0.3 6.68 2 6 C2.33 7.32 2.66 8.64 3 10 C3.680625 9.938125 4.36125 9.87625 5.0625 9.8125 C8.91936125 10.05868263 11.51079594 11.35802162 15 13 C15.33 12.34 15.66 11.68 16 11 C17.15858521 11.19698486 17.15858521 11.19698486 18.34057617 11.39794922 C26.65288458 12.75173728 34.91254141 13.56469658 43.3125 14.125 C45.15618164 14.25455078 45.15618164 14.25455078 47.03710938 14.38671875 C50.02444164 14.59594825 53.01201764 14.8003089 56 15 C56 15.33 56 15.66 56 16 C59.3 16.33 62.6 16.66 66 17 C66 17.33 66 17.66 66 18 C54.64136604 18.17382708 43.44239352 17.70997152 32.125 16.75 C30.9474263 16.65362244 30.9474263 16.65362244 29.74606323 16.55529785 C20.01217822 15.74768348 10.45868736 14.79481792 1.01025391 12.18261719 C-3.57842553 10.91585585 -6.7167335 10.85836675 -11 13 C-12.11445498 10.77109005 -12.16480286 9.46944894 -12.1875 7 C-12.20167969 6.29875 -12.21585937 5.5975 -12.23046875 4.875 C-12 3 -12 3 -10 1 C-6.68421778 -0.18420794 -3.49088913 -0.07933839 0 0 Z " fill="#1F3EA7" transform="translate(126,353)"/>
<path d="M0 0 C1.15338867 0.32452148 2.30677734 0.64904297 3.49511719 0.98339844 C7.69755677 2.02991228 11.75833994 2.29097541 16.078125 2.265625 C16.81198425 2.26753845 17.54584351 2.2694519 18.30194092 2.27142334 C19.83801623 2.27277332 21.37410342 2.26916069 22.91015625 2.26074219 C25.25807138 2.24996294 27.60523227 2.26070914 29.953125 2.2734375 C31.45312668 2.2721169 32.95312789 2.26955657 34.453125 2.265625 C35.15109192 2.26967346 35.84905884 2.27372192 36.56817627 2.27789307 C40.2111352 2.24280749 42.9007632 1.9942054 46 0 C46.66 0.66 47.32 1.32 48 2 C50.84936443 2.45036442 53.63294347 2.79574312 56.5 3.0625 C57.64855469 3.17948242 57.64855469 3.17948242 58.8203125 3.29882812 C60.40428336 3.45907936 61.98887743 3.61326499 63.57397461 3.76196289 C65.16257267 3.91783318 66.74960225 4.09086801 68.33422852 4.28295898 C76.76095471 5.26922102 85.15718866 5.02100994 93.62695312 4.87304688 C94.79033203 4.86208984 95.95371094 4.85113281 97.15234375 4.83984375 C98.7300354 4.81458618 98.7300354 4.81458618 100.33959961 4.78881836 C103 5 103 5 106 7 C97.43862133 7.89467784 89.33739308 7.94983475 80.77734375 7.33618164 C74.4443661 6.92342657 68.34991843 7.23878778 62.0390625 7.84375 C59 8 59 8 57.11987305 7.52734375 C54.72006149 6.93036195 52.51376312 6.8061706 50.04296875 6.71875 C48.62081055 6.66267578 48.62081055 6.66267578 47.16992188 6.60546875 C46.18572266 6.57066406 45.20152344 6.53585937 44.1875 6.5 C33.91263276 6.13231091 33.91263276 6.13231091 29.578125 5.50390625 C24.257658 4.75462651 18.92809667 4.63174415 13.5625 4.4375 C12.44939453 4.39431641 11.33628906 4.35113281 10.18945312 4.30664062 C7.45974156 4.20120112 4.72994857 4.09907971 2 4 C1.34 2.68 0.68 1.36 0 0 Z " fill="#305CC6" transform="translate(180,362)"/>
<path d="M0 0 C0.66 0.66 1.32 1.32 2 2 C1.59007812 2.86882812 1.18015625 3.73765625 0.7578125 4.6328125 C0.21898437 5.78523438 -0.31984375 6.93765625 -0.875 8.125 C-1.40867188 9.26195312 -1.94234375 10.39890625 -2.4921875 11.5703125 C-3.86077314 14.68331299 -4.9402079 17.77304121 -6 21 C-7.57808303 24.70823472 -9.29616984 28.3481602 -11 32 C-11.515625 33.175625 -12.03125 34.35125 -12.5625 35.5625 C-14 38 -14 38 -18 40 C-18 42.97 -18 45.94 -18 49 C-18.33 49 -18.66 49 -19 49 C-19.93585766 39.18389295 -17.24493704 31.09448972 -14 22 C-13.65453125 20.98679687 -13.3090625 19.97359375 -12.953125 18.9296875 C-11.08223791 13.79241557 -9.12799737 10.71519763 -5 7 C-3.63178949 5.02369593 -2.29048808 3.02790984 -1 1 C-0.67 0.67 -0.34 0.34 0 0 Z " fill="#97AAE3" transform="translate(132,312)"/>
<path d="M0 0 C2.3043041 6.44295556 -1.84114628 13.38394268 -4.44140625 19.25390625 C-9.76659198 29.91710947 -19.39523474 43.6733051 -31.19921875 47.76171875 C-33.11591899 48.24691576 -35.05746836 48.63158883 -37 49 C-37.99 49.495 -37.99 49.495 -39 50 C-38.67 49.01 -38.34 48.02 -38 47 C-37.01 46.505 -37.01 46.505 -36 46 C-36 45.01 -36 44.02 -36 43 C-33.69 43.33 -31.38 43.66 -29 44 C-28.87625 43.1646875 -28.87625 43.1646875 -28.75 42.3125 C-27.747146 39.22036682 -26.22502524 37.35216954 -24 35 C-21.75 34.1875 -21.75 34.1875 -20 34 C-20 33.34 -20 32.68 -20 32 C-18.68 31.67 -17.36 31.34 -16 31 C-16 30.01 -16 29.02 -16 28 C-15.38125 27.835 -14.7625 27.67 -14.125 27.5 C-11.56278729 25.69137926 -11.56777153 24.97358877 -10.9375 22 C-10.82277344 21.29875 -10.70804687 20.5975 -10.58984375 19.875 C-10 18 -10 18 -7 16 C-5.61595115 13.53596213 -5.61595115 13.53596213 -4.4375 10.6875 C-3.81681641 9.27017578 -3.81681641 9.27017578 -3.18359375 7.82421875 C-2.0948551 5.22633743 -1.03541074 2.61954147 0 0 Z " fill="#AC6A66" transform="translate(316,174)"/>
<path d="M0 0 C0 0.33 0 0.66 0 1 C-1.65 1 -3.3 1 -5 1 C-5 1.66 -5 2.32 -5 3 C-10.03617059 5.70233544 -14.95378254 7.4056161 -20.5625 8.5 C-23.14625844 8.97704633 -23.14625844 8.97704633 -26.125 10.0625 C-28.9427361 10.98132699 -31.07621757 11 -34 11 C-35.50226841 12.24100434 -37.00288613 13.48426193 -38.484375 14.75 C-40.25911811 16.21370566 -41.80918691 17.26972897 -44 18 C-46.99213869 17.62598266 -49.33512866 16.35464293 -52 15 C-46.95388207 11.98187273 -42.07539757 9.46707841 -36.43359375 7.7734375 C-34.35667964 7.11335886 -32.31541603 6.3428174 -30.28515625 5.55078125 C-25.93162376 3.9048409 -21.54080509 2.80822262 -17 1.8125 C-16.24460938 1.63525391 -15.48921875 1.45800781 -14.7109375 1.27539062 C-9.69852395 0.16008555 -5.13359392 -0.16917525 0 0 Z " fill="#B1C0E9" transform="translate(240,247)"/>
<path d="M0 0 C0.99 0.495 0.99 0.495 2 1 C1 3 1 3 -1.54223633 4.08544922 C-5.48266084 5.12765992 -9.27447691 5.45337988 -13.32421875 5.6328125 C-14.13183655 5.67455597 -14.93945435 5.71629944 -15.77154541 5.75930786 C-18.40981697 5.89150739 -21.04845104 6.00942686 -23.6875 6.125 C-24.5875174 6.16669312 -25.48753479 6.20838623 -26.41482544 6.25134277 C-39.58718727 6.8560838 -52.7513808 7.20769365 -65.9375 7.25 C-66.6939682 7.25517639 -67.4504364 7.26035278 -68.22982788 7.26568604 C-70.35003296 7.27724472 -72.46963638 7.27434947 -74.58984375 7.265625 C-75.78472412 7.26336914 -76.97960449 7.26111328 -78.21069336 7.25878906 C-81 7 -81 7 -83 5 C-78.48345985 4.85556905 -73.96685941 4.71324261 -69.45019531 4.57275391 C-67.91795114 4.52481094 -66.38572395 4.47632155 -64.85351562 4.42724609 C-62.63415776 4.35626141 -60.41475839 4.28692474 -58.1953125 4.21875 C-57.47478699 4.19651367 -56.75426147 4.17427734 -56.01190186 4.15136719 C-52.117041 4.03824823 -48.23205044 3.99013007 -44.3359375 4.03125 C-40.62605644 4.05325311 -37.15704433 3.67862678 -33.5 3 C-28.62579819 2.17708281 -24.05667552 1.83591309 -19.12109375 2.02734375 C-16.96214245 2.08155105 -16.96214245 2.08155105 -14.78515625 1.44140625 C-14.19605469 1.29574219 -13.60695313 1.15007812 -13 1 C-12.505 1.495 -12.505 1.495 -12 2 C-10.16352258 1.93607199 -8.32929108 1.79944271 -6.5 1.625 C-5.4996875 1.53476562 -4.499375 1.44453125 -3.46875 1.3515625 C-1.06053216 1.26065029 -1.06053216 1.26065029 0 0 Z " fill="#2F5CC6" transform="translate(370,363)"/>
<path d="M0 0 C7.64594111 0.77192805 15.29560344 1.05367454 22.97265625 1.29296875 C24.1116185 1.32957108 24.1116185 1.32957108 25.27359009 1.36691284 C39.43085199 1.7948294 53.31868932 1.14029457 67.41015625 -0.39453125 C67.41015625 -0.06453125 67.41015625 0.26546875 67.41015625 0.60546875 C70.38015625 0.93546875 73.35015625 1.26546875 76.41015625 1.60546875 C73.41015625 4.60546875 73.41015625 4.60546875 70.66921997 4.93499756 C69.56037445 4.91358704 68.45152893 4.89217651 67.30908203 4.87011719 C66.04991974 4.85309753 64.79075745 4.83607788 63.49343872 4.81854248 C62.11410479 4.78440197 60.73478163 4.7498243 59.35546875 4.71484375 C57.93360493 4.68931309 56.5117184 4.66502026 55.08981323 4.64190674 C52.10193056 4.59028798 49.11447629 4.52881826 46.12695312 4.45947266 C42.33389625 4.37146833 38.54077884 4.29954532 34.74727058 4.23418808 C31.09572859 4.17068885 27.4443486 4.09949129 23.79296875 4.02734375 C23.1124155 4.01439018 22.43186226 4.00143661 21.73068619 3.98809052 C-3.7112926 3.4840199 -3.7112926 3.4840199 -6.58984375 0.60546875 C-4.05968226 -0.65961199 -2.80228971 -0.32443643 0 0 Z " fill="#4273D5" transform="translate(263.58984375,362.39453125)"/>
<path d="M0 0 C0.98226562 0.18046875 1.96453125 0.3609375 2.9765625 0.546875 C4.77800874 0.91958802 6.57865223 1.29866572 8.36787415 1.72622681 C13.62313734 2.97084098 18.74823094 3.70002011 24.12890625 4.1015625 C24.91522934 4.16532074 25.70155243 4.22907898 26.51170349 4.29476929 C28.98654021 4.49409223 31.46195461 4.68470347 33.9375 4.875 C35.63090562 5.00983716 37.32426559 5.14524884 39.01757812 5.28125 C43.13622188 5.61079914 47.25540711 5.93254546 51.375 6.25 C51.375 6.58 51.375 6.91 51.375 7.25 C41.73882095 7.37112516 32.18535958 7.14179341 22.56445312 6.60791016 C16.16278623 6.26184034 9.78657084 6.13271517 3.375 6.25 C3.375 6.91 3.375 7.57 3.375 8.25 C-1.2425429 8.57215416 -3.96374929 8.17900057 -7.625 5.25 C-8.4375 3.0625 -8.4375 3.0625 -8.625 1.25 C-4.97912654 -1.18058231 -4.16991691 -0.79734845 0 0 Z " fill="#1B369A" transform="translate(124.625,363.75)"/>
<path d="M0 0 C2.18703385 -0.37907282 2.18703385 -0.37907282 4 -1 C4 -0.34 4 0.32 4 1 C5.01191406 0.98839844 6.02382813 0.97679687 7.06640625 0.96484375 C15.02593092 0.90791129 22.96357043 0.97211739 30.91796875 1.29296875 C31.6033522 1.31961105 32.28873566 1.34625336 32.99488831 1.373703 C36.43826161 1.50837441 39.88045444 1.65513492 43.32250977 1.82006836 C44.60311279 1.87171143 45.88371582 1.92335449 47.203125 1.9765625 C48.91483887 2.05511475 48.91483887 2.05511475 50.66113281 2.13525391 C54.46409162 1.98120015 57.39350868 1.17448614 61 0 C61.495 1.485 61.495 1.485 62 3 C54.8148773 5.01687655 42.98084518 7.49042259 36 4 C34.57840967 4.1174868 33.16153415 4.29434602 31.75 4.5 C26.4715869 5.08482418 21.50672575 4.77496439 16.2265625 4.32421875 C10.8672546 3.88225502 5.49667884 3.67101379 0.125 3.4375 C-0.86918945 3.39383301 -1.86337891 3.35016602 -2.88769531 3.30517578 C-5.25840256 3.20193932 -7.62916081 3.10015362 -10 3 C-9.34 2.67 -8.68 2.34 -8 2 C-8 1.34 -8 0.68 -8 0 C-4.86567988 -1.00746004 -3.13816549 -0.78454137 0 0 Z " fill="#648FDF" transform="translate(267,357)"/>
<path d="M0 0 C6.16809625 0.85303459 10.12051285 4.35684468 15 8 C15.74636719 8.53882813 16.49273437 9.07765625 17.26171875 9.6328125 C23.78500155 14.48135663 29.36381779 20.17418923 35 26 C34.01 26.33 33.02 26.66 32 27 C30 26 30 26 29.25 24.125 C27.45267269 21.06954357 25.21469101 20.35017022 22 19 C21.278125 18.896875 20.55625 18.79375 19.8125 18.6875 C18 18 18 18 16.25 15.0625 C15 12 15 12 15 10 C13.02 10 11.04 10 9 10 C8.67 10.66 8.34 11.32 8 12 C7.34 12 6.68 12 6 12 C6 9.69 6 7.38 6 5 C5.34 4.67 4.68 4.34 4 4 C4 3.34 4 2.68 4 2 C2.68 1.67 1.36 1.34 0 1 C0 0.67 0 0.34 0 0 Z " fill="#6B93CE" transform="translate(322,267)"/>
<path d="M0 0 C0.65880661 0.00141495 1.31761322 0.0028299 1.99638367 0.00428772 C4.08487637 0.00985125 6.17325886 0.02239678 8.26171875 0.03515625 C9.68424324 0.04017597 11.10676941 0.04473805 12.52929688 0.04882812 C16.00263952 0.05980868 19.47591836 0.0770479 22.94921875 0.09765625 C22.94921875 0.75765625 22.94921875 1.41765625 22.94921875 2.09765625 C24.89828125 1.94296875 24.89828125 1.94296875 26.88671875 1.78515625 C34.23437375 1.75371122 40.94808944 4.24002371 47.86425781 6.47558594 C50.01042132 7.11591669 52.15994815 7.59760034 54.34765625 8.07421875 C57.94921875 9.09765625 57.94921875 9.09765625 59.94921875 12.09765625 C58.40720985 11.68225793 56.86564324 11.26521793 55.32421875 10.84765625 C54.31875 10.57566406 53.31328125 10.30367187 52.27734375 10.0234375 C50.03106396 9.39859207 47.79140467 8.74951169 45.55859375 8.078125 C44.40875 7.73394531 43.25890625 7.38976562 42.07421875 7.03515625 C41.02492188 6.71417969 39.975625 6.39320313 38.89453125 6.0625 C27.45333096 3.05108828 15.88293419 2.71148643 4.13671875 2.47265625 C2.55792396 2.43435883 0.97914744 2.39530089 -0.59960938 2.35546875 C-4.41651362 2.26078974 -8.23351455 2.17631004 -12.05078125 2.09765625 C-12.05078125 1.76765625 -12.05078125 1.43765625 -12.05078125 1.09765625 C-7.97774095 0.1208026 -4.18257425 -0.01779819 0 0 Z " fill="#D7D8E0" transform="translate(244.05078125,244.90234375)"/>
<path d="M0 0 C3.22076889 1.76600983 3.97742002 2.93846259 5.265625 6.44921875 C5.61600801 7.85662408 5.94290304 9.27002003 6.25 10.6875 C6.41693359 11.43555908 6.58386719 12.18361816 6.75585938 12.9543457 C8.45407278 21.21234162 10.48111233 31.74448562 6.09375 39.26953125 C5.4028125 40.17058594 4.711875 41.07164062 4 42 C3.34 42.99 2.68 43.98 2 45 C0.06738281 45.52416992 0.06738281 45.52416992 -2.296875 45.73046875 C-3.16739502 45.81119629 -4.03791504 45.89192383 -4.93481445 45.97509766 C-5.86382568 46.04519043 -6.79283691 46.1152832 -7.75 46.1875 C-9.16188599 46.30810791 -9.16188599 46.30810791 -10.60229492 46.43115234 C-18.08169606 47.02950444 -25.49712419 47.22697776 -33 47 C-29.47211337 44.64807558 -27.72965025 44.67960057 -23.5390625 44.5078125 C-21.62480469 44.40919922 -21.62480469 44.40919922 -19.671875 44.30859375 C-17.64895647 44.21392273 -15.62614592 44.12504454 -13.60253906 44.04638672 C-11.64314591 43.96653834 -9.68478908 43.86243549 -7.7265625 43.7578125 C-6.55689941 43.7077002 -5.38723633 43.65758789 -4.18212891 43.60595703 C-0.42711152 42.89090769 1.28370344 41.64322336 4 39 C7.63116026 32.25641666 6.92884534 23.94862375 4.9140625 16.76953125 C4.06727287 14.00104762 3.1441489 11.26483289 2.19140625 8.53125 C1.22459116 5.66567347 0.49760425 2.97418633 0 0 Z " fill="#DAD9E3" transform="translate(379,328)"/>
<path d="M0 0 C0.90298828 -0.01160156 1.80597656 -0.02320312 2.73632812 -0.03515625 C8.68689508 -0.00930295 13.11805237 0.96798105 18.5625 3.375 C18.5625 3.705 18.5625 4.035 18.5625 4.375 C15.1671836 4.57277236 11.77124308 4.75639685 8.375 4.9375 C7.41529297 4.99357422 6.45558594 5.04964844 5.46679688 5.10742188 C4.06977539 5.17993164 4.06977539 5.17993164 2.64453125 5.25390625 C1.79093018 5.3010376 0.9373291 5.34816895 0.05786133 5.39672852 C-2.56318509 5.37390559 -4.88099145 4.92479833 -7.4375 4.375 C-9.71482749 4.46214144 -9.71482749 4.46214144 -11.9375 4.8125 C-15.13621847 5.22902761 -18.20447134 5.47929125 -21.4375 5.375 C-20.11491528 4.68725595 -18.77763497 4.02788627 -17.4375 3.375 C-16.4475 2.86324219 -15.4575 2.35148437 -14.4375 1.82421875 C-9.7032947 -0.1869402 -5.074058 -0.06491332 0 0 Z " fill="#E2BEAF" transform="translate(251.4375,91.625)"/>
<path d="M0 0 C-0.3125 1.875 -0.3125 1.875 -1 4 C-4.58623745 6.39082496 -7.3358015 6.45233701 -11.5 6.625 C-12.28866455 6.66294678 -13.0773291 6.70089355 -13.88989258 6.73999023 C-28.57567815 7.33421277 -43.30552246 7.08009568 -58 7 C-58 6.67 -58 6.34 -58 6 C-57.13947021 5.98541748 -56.27894043 5.97083496 -55.39233398 5.95581055 C-52.12094536 5.89382173 -48.85027276 5.81951851 -45.5793457 5.73754883 C-44.1784068 5.70481288 -42.77735216 5.67663176 -41.3762207 5.65356445 C-32.43013267 5.50248068 -24.1098049 4.67452226 -15.38696289 2.63208008 C-12 2 -12 2 -8.25561523 2.03393555 C-4.68696491 1.99673702 -3.31629449 0 0 0 Z " fill="#233E9D" transform="translate(383,365)"/>
<path d="M0 0 C-2.40148787 1.34483321 -4.50025214 2.12751525 -7.1875 2.8125 C-13.41790171 4.75311693 -18.79982801 7.47336696 -23.25 12.3125 C-26 15 -26 15 -28.75 15.25 C-29.4925 15.1675 -30.235 15.085 -31 15 C-31.66 15.66 -32.32 16.32 -33 17 C-35.01440404 17.83933502 -37.05819665 18.51968416 -39.125 19.21875 C-41.19575753 19.94192432 -41.19575753 19.94192432 -43 22 C-43.99 21.67 -44.98 21.34 -46 21 C-43.65063552 19.38840248 -41.29593766 17.78572495 -38.9375 16.1875 C-38.28072266 15.73568359 -37.62394531 15.28386719 -36.94726562 14.81835938 C-32.7502033 11.98585919 -28.68724602 9.90506662 -24 8 C-22.5273404 7.1922536 -21.06673702 6.36172787 -19.625 5.5 C-15.81088383 3.32798187 -12.0414178 1.85030663 -7.84765625 0.578125 C-3.06312522 -0.91893756 -3.06312522 -0.91893756 0 0 Z " fill="#C5CAE1" transform="translate(208,254)"/>
<path d="M0 0 C18.36725377 -0.44677104 36.67705772 0.87985915 55 2 C55 2.33 55 2.66 55 3 C39.16 3 23.32 3 7 3 C7 2.34 7 1.68 7 1 C4.69 1 2.38 1 0 1 C0 0.67 0 0.34 0 0 Z " fill="#1F2E7F" transform="translate(121,369)"/>
<path d="M0 0 C0 3 0 3 0 3 Z M-3 4 C-2.34 4.99 -1.68 5.98 -1 7 C-1.4125 7.61875 -1.825 8.2375 -2.25 8.875 C-4.21089876 12.37660493 -5.56462401 15.93134415 -6.9375 19.6953125 C-8.02091301 22.04536277 -8.9848574 23.39418324 -11 25 C-11.66 25 -12.32 25 -13 25 C-13 27.97 -13 30.94 -13 34 C-13.33 34 -13.66 34 -14 34 C-14.02715383 32.25008666 -14.04646551 30.50005055 -14.0625 28.75 C-14.07410156 27.77546875 -14.08570312 26.8009375 -14.09765625 25.796875 C-14.0111252 23.31862574 -13.84745178 21.32383005 -13 19 C-12.34 18.67 -11.68 18.34 -11 18 C-9.87293294 15.88984046 -9.87293294 15.88984046 -8.875 13.4375 C-8.52179688 12.61121094 -8.16859375 11.78492188 -7.8046875 10.93359375 C-7.53914063 10.29550781 -7.27359375 9.65742188 -7 9 C-6.34 9 -5.68 9 -5 9 C-5 8.01 -5 7.02 -5 6 C-4.34 6 -3.68 6 -3 6 C-3 5.34 -3 4.68 -3 4 Z " fill="#8DA1D7" transform="translate(127,327)"/>
<path d="M0 0 C1.99603369 5.58101525 -0.86643624 10.79194688 -3 16 C-5.14031743 20.43842988 -7.54688522 24.72772145 -10 29 C-10.99 29 -11.98 29 -13 29 C-12.57674417 27.20491499 -12.13589265 25.4139717 -11.6875 23.625 C-11.44386719 22.62726563 -11.20023437 21.62953125 -10.94921875 20.6015625 C-10 18 -10 18 -7 16 C-5.61595115 13.53596213 -5.61595115 13.53596213 -4.4375 10.6875 C-4.02371094 9.74261719 -3.60992187 8.79773438 -3.18359375 7.82421875 C-2.0948551 5.22633743 -1.03541074 2.61954147 0 0 Z " fill="#C4836C" transform="translate(316,174)"/>
<path d="M0 0 C0.99 0.33 1.98 0.66 3 1 C-7.76717557 8 -7.76717557 8 -13 8 C-13 7.34 -13 6.68 -13 6 C-14.47146484 6.50660156 -14.47146484 6.50660156 -15.97265625 7.0234375 C-20.23767599 8.24201457 -24.06071052 8.0254382 -28.4375 7.625 C-29.16904297 7.56828125 -29.90058594 7.5115625 -30.65429688 7.453125 C-32.43711286 7.3132963 -34.21872382 7.15824062 -36 7 C-36 6.01 -36 5.02 -36 4 C-34.865625 4.17015625 -33.73125 4.3403125 -32.5625 4.515625 C-27.99300458 5.08278948 -23.58878748 5.00841295 -19 4.75 C-18.24460937 4.72292969 -17.48921875 4.69585937 -16.7109375 4.66796875 C-10.54511973 4.3395489 -5.54877387 2.77438693 0 0 Z " fill="#9C5D72" transform="translate(281,221)"/>
<path d="M0 0 C0.66 0 1.32 0 2 0 C1.95875 0.7425 1.9175 1.485 1.875 2.25 C2.00398134 5.08758952 2.57051222 6.58773938 4 9 C5.98 9 7.96 9 10 9 C10.33 9.99 10.66 10.98 11 12 C11.99 12.33 12.98 12.66 14 13 C14 12.34 14 11.68 14 11 C15.32 11.33 16.64 11.66 18 12 C18 12.99 18 13.98 18 15 C18.99 15.33 19.98 15.66 21 16 C19.40234375 17.1953125 19.40234375 17.1953125 17 18 C13.94140625 16.8046875 13.94140625 16.8046875 10.5625 14.875 C9.45003906 14.25367188 8.33757812 13.63234375 7.19140625 12.9921875 C4.23862222 11.14895634 1.55425773 9.36540318 -1 7 C-1.375 3.8125 -1.375 3.8125 -1 1 C-0.67 0.67 -0.34 0.34 0 0 Z " fill="#905B63" transform="translate(205,208)"/>
<path d="M0 0 C1.8125 0.0625 1.8125 0.0625 4 1 C7.3896177 5.38656408 9.2652428 9.79572839 11 15 C13.00016466 16.20882096 13.00016466 16.20882096 15 17 C14.34 17.33 13.68 17.66 13 18 C12.67 18.66 12.34 19.32 12 20 C9 18 9 18 8.3125 15.375 C8.209375 14.59125 8.10625 13.8075 8 13 C7.01 13.33 6.02 13.66 5 14 C4.896875 13.401875 4.79375 12.80375 4.6875 12.1875 C4.17676472 9.94787604 4.17676472 9.94787604 2.5625 8.625 C0.39867306 6.37461998 -0.14515602 3.95907532 -1 1 C-0.67 0.67 -0.34 0.34 0 0 Z " fill="#4C89DF" transform="translate(353,293)"/>
<path d="M0 0 C0.99 0.33 1.98 0.66 3 1 C2.34 1 1.68 1 1 1 C0.814375 1.5775 0.62875 2.155 0.4375 2.75 C-1.29922941 5.46835907 -3.25101442 6.20358381 -6.0546875 7.65234375 C-9.27334256 9.8821349 -11.28417193 13.000427 -13.51953125 16.171875 C-14.00808594 16.77515625 -14.49664062 17.3784375 -15 18 C-15.66 18 -16.32 18 -17 18 C-17.2475 18.763125 -17.495 19.52625 -17.75 20.3125 C-19.10995558 23.2364045 -20.31585826 24.30004356 -23 26 C-22.71591906 21.31266455 -20.48550729 18.79071085 -17.5703125 15.35546875 C-16 14 -16 14 -13 14 C-12.731875 13.443125 -12.46375 12.88625 -12.1875 12.3125 C-11.5996875 11.1678125 -11.5996875 11.1678125 -11 10 C-10.5875 9.13375 -10.175 8.2675 -9.75 7.375 C-7.5195196 4.34791945 -5.58577656 3.87652316 -2 3 C-2 2.34 -2 1.68 -2 1 C-1.34 0.67 -0.68 0.34 0 0 Z " fill="#D8D7DC" transform="translate(157,278)"/>
<path d="M0 0 C0.99 0.495 0.99 0.495 2 1 C1.938125 1.86625 1.87625 2.7325 1.8125 3.625 C2.02519978 7.45359599 3.18235576 9.66765223 5 13 C5 13.66 5 14.32 5 15 C7.11785113 16.11785113 7.11785113 16.11785113 10 17 C10 18.32 10 19.64 10 21 C10.66 21.33 11.32 21.66 12 22 C12 22.99 12 23.98 12 25 C12.66 25 13.32 25 14 25 C14.33 26.32 14.66 27.64 15 29 C8.0132995 23.55037361 1.90045849 16.93215488 0 8 C-0.13727278 5.30847306 -0.0930664 2.69892556 0 0 Z " fill="#C18C7F" transform="translate(188,183)"/>
<path d="M0 0 C1.98 0.495 1.98 0.495 4 1 C3.835 1.7425 3.67 2.485 3.5 3.25 C2.88074304 6.19006578 2.88074304 6.19006578 3 10 C2.67 10.33 2.34 10.66 2 11 C1.84313751 12.55948542 1.74923361 14.12542668 1.68359375 15.69140625 C1.64169922 16.63564453 1.59980469 17.57988281 1.55664062 18.55273438 C1.51732422 19.54595703 1.47800781 20.53917969 1.4375 21.5625 C1.39431641 22.55958984 1.35113281 23.55667969 1.30664062 24.58398438 C1.20019702 27.0558415 1.09818072 29.5278031 1 32 C-0.82465469 28.87499071 -1.24762789 26.60988672 -1.23046875 23.0078125 C-1.22853516 22.05519531 -1.22660156 21.10257813 -1.22460938 20.12109375 C-1.21236328 19.13238281 -1.20011719 18.14367187 -1.1875 17.125 C-1.18685547 16.14402344 -1.18621094 15.16304687 -1.18554688 14.15234375 C-1.15626309 9.33028129 -1.0039759 4.73876624 0 0 Z " fill="#DEBEB4" transform="translate(183,148)"/>
<path d="M0 0 C2.01233834 -0.00219448 4.0241348 -0.02040428 6.03637695 -0.03930664 C7.94580078 -0.04220703 7.94580078 -0.04220703 9.89379883 -0.04516602 C11.05596924 -0.0492749 12.21813965 -0.05338379 13.41552734 -0.05761719 C16.33689852 0.17606432 17.9898429 0.65892272 20.45239258 2.18530273 C19.79239258 3.50530273 19.13239258 4.82530273 18.45239258 6.18530273 C17.46239258 6.18530273 16.47239258 6.18530273 15.45239258 6.18530273 C14.95739258 4.20530273 14.95739258 4.20530273 14.45239258 2.18530273 C13.40051758 2.37092773 12.34864258 2.55655273 11.26489258 2.74780273 C7.74942643 3.15121688 5.82258793 2.88602372 2.45239258 2.18530273 C0.8327776 2.10880492 -0.78950187 2.07718592 -2.41088867 2.08764648 C-3.29711914 2.09086914 -4.18334961 2.0940918 -5.09643555 2.09741211 C-6.46445313 2.10998047 -6.46445313 2.10998047 -7.86010742 2.12280273 C-8.79145508 2.12731445 -9.72280273 2.13182617 -10.68237305 2.13647461 C-12.97085115 2.14821039 -15.2591955 2.1646291 -17.54760742 2.18530273 C-17.54760742 1.85530273 -17.54760742 1.52530273 -17.54760742 1.18530273 C-11.72934066 -0.18277805 -5.94799195 -0.00072794 0 0 Z " fill="#6D97E0" transform="translate(257.547607421875,248.814697265625)"/>
<path d="M0 0 C-0.495 0.433125 -0.99 0.86625 -1.5 1.3125 C-3.33218192 2.99740483 -3.33218192 2.99740483 -3 6 C-3.94875 6.4125 -4.8975 6.825 -5.875 7.25 C-9.00716624 9.0040131 -9.86500606 9.70851757 -11 13 C-12.11445498 10.77109005 -12.16480286 9.46944894 -12.1875 7 C-12.20167969 6.29875 -12.21585937 5.5975 -12.23046875 4.875 C-12 3 -12 3 -10 1 C-6.68421778 -0.18420794 -3.49088913 -0.07933839 0 0 Z " fill="#5371C8" transform="translate(126,353)"/>
<path d="M0 0 C5.00254989 7.50382484 6.66069834 15.07636639 7 24 C6.34 24 5.68 24 5 24 C5 21.03 5 18.06 5 15 C4.34 15 3.68 15 3 15 C2.67 13.02 2.34 11.04 2 9 C1.34 9 0.68 9 0 9 C-0.33 9.66 -0.66 10.32 -1 11 C-1 10.01 -1 9.02 -1 8 C-1.99 8 -2.98 8 -4 8 C-2.66666667 5.33333333 -1.33333333 2.66666667 0 0 Z " fill="#537BC5" transform="translate(378,328)"/>
<path d="M0 0 C0.33 0.66 0.66 1.32 1 2 C3.52733235 2.65555119 3.52733235 2.65555119 6 3 C6 3.66 6 4.32 6 5 C8.64 5 11.28 5 14 5 C14.66 6.32 15.32 7.64 16 9 C14.5629191 9.05422947 13.12524538 9.09289723 11.6875 9.125 C10.88699219 9.14820313 10.08648437 9.17140625 9.26171875 9.1953125 C7 9 7 9 4 7 C4 6.34 4 5.68 4 5 C1.69 5 -0.62 5 -3 5 C-3 4.34 -3 3.68 -3 3 C-3.66 3 -4.32 3 -5 3 C-5 2.34 -5 1.68 -5 1 C-3 0 -3 0 0 0 Z " fill="#406ACE" transform="translate(154,355)"/>
<path d="M0 0 C1.32 0.33 2.64 0.66 4 1 C2.64978174 5.41889613 0.73884332 7.34345343 -3 10 C-3 9.34 -3 8.68 -3 8 C-4.175625 8.7425 -4.175625 8.7425 -5.375 9.5 C-8 11 -8 11 -10 11 C-10.33 12.32 -10.66 13.64 -11 15 C-11.66 15 -12.32 15 -13 15 C-11.65365543 10.5937814 -9.80625626 8.56922298 -6 6 C-5.34 6 -4.68 6 -4 6 C-4 5.34 -4 4.68 -4 4 C-2.68 3.67 -1.36 3.34 0 3 C0 2.01 0 1.02 0 0 Z " fill="#BF6E62" transform="translate(300,202)"/>
<path d="M0 0 C-5.03617059 2.70233544 -9.95378254 4.4056161 -15.5625 5.5 C-18.14625844 5.97704633 -18.14625844 5.97704633 -21.125 7.0625 C-24 8 -24 8 -27 8 C-21.78439594 1.95816163 -7.63631938 -2.54543979 0 0 Z " fill="#91ACE6" transform="translate(235,250)"/>
<path d="M0 0 C2.79177569 2.79177569 2.31213484 4.63183572 2.4140625 8.5390625 C2.45273438 9.84101563 2.49140625 11.14296875 2.53125 12.484375 C2.56270763 13.86457862 2.59395491 15.24478704 2.625 16.625 C2.66317934 18.01304541 2.70223105 19.40106711 2.7421875 20.7890625 C2.83672943 24.19257185 2.92227897 27.59607165 3 31 C0.85604092 26.71208185 -0.12225525 24.20653928 -0.09765625 19.3359375 C-0.09443359 18.21445313 -0.09121094 17.09296875 -0.08789062 15.9375 C-0.07951172 14.761875 -0.07113281 13.58625 -0.0625 12.375 C-0.05798828 11.19164062 -0.05347656 10.00828125 -0.04882812 8.7890625 C-0.03701467 5.85932493 -0.02054258 2.92968728 0 0 Z " fill="#D6ADA2" transform="translate(184,159)"/>
<path d="M0 0 C0.97001953 0.01353516 1.94003906 0.02707031 2.93945312 0.04101562 C5.31439129 0.07611323 7.68814378 0.12527725 10.0625 0.1875 C10.0625 0.5175 10.0625 0.8475 10.0625 1.1875 C8.74185547 1.26097656 8.74185547 1.26097656 7.39453125 1.3359375 C5.65236328 1.44808594 5.65236328 1.44808594 3.875 1.5625 C2.15216797 1.66691406 2.15216797 1.66691406 0.39453125 1.7734375 C-2.76892368 2.16655148 -5.02981954 2.95306186 -7.9375 4.1875 C-10.21875 4.6015625 -10.21875 4.6015625 -12.4375 4.8125 C-13.20964844 4.88597656 -13.98179687 4.95945312 -14.77734375 5.03515625 C-17.17087522 5.20395865 -19.53892669 5.26487333 -21.9375 5.1875 C-20.61491528 4.49975595 -19.27763497 3.84038627 -17.9375 3.1875 C-16.9578125 2.671875 -15.978125 2.15625 -14.96875 1.625 C-10.08886719 -0.45619203 -5.21853716 -0.13911343 0 0 Z " fill="#E6C8BC" transform="translate(251.9375,91.8125)"/>
<path d="M0 0 C0.33 0 0.66 0 1 0 C1.33 2.97 1.66 5.94 2 9 C1.34 9 0.68 9 0 9 C0 9.99 0 10.98 0 12 C-0.433125 12.4125 -0.86625 12.825 -1.3125 13.25 C-3.79323439 15.82261344 -4.68732152 18.68704954 -6 22 C-7.13702419 18.66472903 -6.88480118 16.91003798 -5.56640625 13.671875 C-5.24736328 12.87265625 -4.92832031 12.0734375 -4.59960938 11.25 C-4.25736328 10.425 -3.91511719 9.6 -3.5625 8.75 C-3.22412109 7.90953125 -2.88574219 7.0690625 -2.53710938 6.203125 C-1.70126562 4.13117428 -0.85533351 2.06396385 0 0 Z " fill="#AEB6DC" transform="translate(122,324)"/>
<path d="M0 0 C0 0.33 0 0.66 0 1 C-1.21816406 1.26554688 -2.43632812 1.53109375 -3.69140625 1.8046875 C-5.3151294 2.16134345 -6.93882591 2.51812074 -8.5625 2.875 C-9.36236328 3.04902344 -10.16222656 3.22304687 -10.98632812 3.40234375 C-14.64314731 4.20833655 -18.25685159 5.0465861 -21.84375 6.125 C-25.3458707 7.09588495 -28.38307248 7.14762969 -32 7 C-28.63530498 3.63530498 -23.92211305 3.38677677 -19.375 2.375 C-18.40175781 2.14554688 -17.42851562 1.91609375 -16.42578125 1.6796875 C-10.81302779 0.41058578 -5.75200699 -0.25959176 0 0 Z " fill="#B3BDDF" transform="translate(240,247)"/>
<path d="M0 0 C1.32 0.33 2.64 0.66 4 1 C2.68 3.64 1.36 6.28 0 9 C0.66 9.33 1.32 9.66 2 10 C0.02 10.99 0.02 10.99 -2 12 C-2.33 20.25 -2.66 28.5 -3 37 C-3.33 37 -3.66 37 -4 37 C-4.35106382 24.07565034 -4.13364697 12.4009409 0 0 Z " fill="#E5CDC2" transform="translate(185,136)"/>
<path d="M0 0 C0.66 0.33 1.32 0.66 2 1 C2 1.66 2 2.32 2 3 C3.31871094 3.09087891 3.31871094 3.09087891 4.6640625 3.18359375 C8.86254807 4.21109198 10.44366984 5.93310699 13.375 9.0625 C14.68597656 10.44115234 14.68597656 10.44115234 16.0234375 11.84765625 C16.67570312 12.55792969 17.32796875 13.26820313 18 14 C17.01 14.33 16.02 14.66 15 15 C13 14 13 14 12.25 12.125 C10.45267269 9.06954357 8.21469101 8.35017022 5 7 C4.2575 6.87625 3.515 6.7525 2.75 6.625 C1 6 1 6 -0.25 3.4375 C-0.4975 2.633125 -0.745 1.82875 -1 1 C-0.67 0.67 -0.34 0.34 0 0 Z " fill="#568EE0" transform="translate(339,279)"/>
<path d="M0 0 C0.66 0.33 1.32 0.66 2 1 C3.57407504 6.82407765 3.08713994 13.01639051 3 19 C2.34 18.34 1.68 17.68 1 17 C1.375 14.375 1.375 14.375 2 12 C1.01 12.33 0.02 12.66 -1 13 C-2.0070238 7.96488101 -1.97387813 4.76052962 0 0 Z " fill="#D89E7E" transform="translate(315,152)"/>
<path d="M0 0 C0.66 1.32 1.32 2.64 2 4 C3.65 4 5.3 4 7 4 C7.33 4.66 7.66 5.32 8 6 C4.37467943 7.25794256 1.65749735 6.73754594 -2.0625 6 C-6.57523269 5.04921596 -6.57523269 5.04921596 -11 6 C-10.67 4.68 -10.34 3.36 -10 2 C-7.63591793 1.24011648 -6.30986733 0.9179763 -3.875 1.5625 C-3.25625 1.706875 -2.6375 1.85125 -2 2 C-1.34 1.34 -0.68 0.68 0 0 Z " fill="#284BB9" transform="translate(127,359)"/>
<path d="M0 0 C-0.9375 2 -0.9375 2 -3 4 C-9.1567873 5.00015321 -15.8531148 3.71863376 -22 3 C-22 2.67 -22 2.34 -22 2 C-19.27123692 1.66304138 -16.54206837 1.33031571 -13.8125 1 C-13.04357422 0.90460938 -12.27464844 0.80921875 -11.48242188 0.7109375 C-7.63071189 0.24807106 -3.88829149 -0.12467468 0 0 Z " fill="#6D96E4" transform="translate(324,356)"/>
<path d="M0 0 C0.73089844 -0.01417969 1.46179688 -0.02835937 2.21484375 -0.04296875 C4.0625 0.1875 4.0625 0.1875 7.0625 2.1875 C-3.43161854 3.26851063 -13.44802868 3.01294266 -23.9375 2.1875 C-23.9375 1.8575 -23.9375 1.5275 -23.9375 1.1875 C-6.55181441 0.1269353 -6.55181441 0.1269353 0 0 Z " fill="#315BC5" transform="translate(278.9375,366.8125)"/>
<path d="M0 0 C0.66 0.33 1.32 0.66 2 1 C1 3 1 3 -1.375 4.125 C-6.28259508 5.30959192 -10.97703807 5.16087778 -16 5 C-15.67 4.34 -15.34 3.68 -15 3 C-12.3828125 2.40234375 -12.3828125 2.40234375 -9.125 1.9375 C-5.92588374 1.47112281 -3.07034214 1.02344738 0 0 Z " fill="#2A5BC6" transform="translate(370,363)"/>
<path d="M0 0 C0 0.33 0 0.66 0 1 C-2.31 1.33 -4.62 1.66 -7 2 C-7 2.66 -7 3.32 -7 4 C-5.03177114 5.96822886 -1.65191291 5.66248381 1 6 C1 6.66 1 7.32 1 8 C-3.6175429 8.32215416 -6.33874929 7.92900057 -10 5 C-10.8125 2.8125 -10.8125 2.8125 -11 1 C-6.8204355 -1.78637633 -4.85331323 -0.79562512 0 0 Z " fill="#334495" transform="translate(127,364)"/>
<path d="M0 0 C1.7290774 -0.02725341 3.45828176 -0.04650987 5.1875 -0.0625 C6.15042969 -0.07410156 7.11335937 -0.08570313 8.10546875 -0.09765625 C10.86222991 -0.00464811 13.30796292 0.43841611 16 1 C17.7634375 0.9690625 17.7634375 0.9690625 19.5625 0.9375 C22.92059253 0.99855623 24.17517243 1.4237833 27 3 C7.99544419 3.18451025 7.99544419 3.18451025 0 2 C0 1.34 0 0.68 0 0 Z " fill="#3058C3" transform="translate(149,362)"/>
<path d="M0 0 C0.99 0.33 1.98 0.66 3 1 C1.68 3.64 0.36 6.28 -1 9 C-1.66 9 -2.32 9 -3 9 C-3.28875 9.94875 -3.5775 10.8975 -3.875 11.875 C-5 15 -5 15 -7 17 C-6.33501617 12.61110675 -4.81242323 9.0188515 -3 5 C-2.34 5 -1.68 5 -1 5 C-0.67 3.35 -0.34 1.7 0 0 Z " fill="#DCD9DE" transform="translate(128,309)"/>
<path d="M0 0 C5.17226615 4.6873662 8.98925493 10.31728181 13 16 C10 16 10 16 7.5625 14 C3.94228192 9.76169591 1.75595169 5.26785507 0 0 Z " fill="#658CCD" transform="translate(357,294)"/>
<path d="M0 0 C7.85131668 0.34740339 14.64925625 2.28451906 22 5 C22 5.33 22 5.66 22 6 C17.33333333 5.33333333 12.66666667 4.66666667 8 4 C8 3.34 8 2.68 8 2 C6.576875 2.2784375 6.576875 2.2784375 5.125 2.5625 C2 3 2 3 0 2 C0 1.34 0 0.68 0 0 Z " fill="#7A9BD6" transform="translate(280,251)"/>
<path d="M0 0 C-0.33 0.66 -0.66 1.32 -1 2 C-4.00015912 3.00005304 -5.97423756 3.11575585 -9.10546875 3.09765625 C-10.08837891 3.09443359 -11.07128906 3.09121094 -12.08398438 3.08789062 C-13.10814453 3.07951172 -14.13230469 3.07113281 -15.1875 3.0625 C-16.22326172 3.05798828 -17.25902344 3.05347656 -18.32617188 3.04882812 C-20.88417266 3.0370401 -23.44205733 3.02058515 -26 3 C-26 2.67 -26 2.34 -26 2 C-22.60454455 1.66274171 -19.2085816 1.33088879 -15.8125 1 C-14.85279297 0.90460938 -13.89308594 0.80921875 -12.90429688 0.7109375 C-11.97294922 0.62070312 -11.04160156 0.53046875 -10.08203125 0.4375 C-9.22843018 0.35371094 -8.3748291 0.26992188 -7.49536133 0.18359375 C-4.98711079 -0.00094831 -2.51404403 -0.03149938 0 0 Z " fill="#487AD8" transform="translate(331,362)"/>
<path d="M0 0 C0.66 1.32 1.32 2.64 2 4 C-1.1254959 6.64465038 -4.08788267 7.84414715 -8 9 C-8 7.68 -8 6.36 -8 5 C-5.6875 3.375 -5.6875 3.375 -3 2 C-2.01 1.34 -1.02 0.68 0 0 Z " fill="#6D87D3" transform="translate(122,347)"/>
<path d="M0 0 C-12.625 7.73790323 -12.625 7.73790323 -19 10 C-13.89270386 3.28755365 -13.89270386 3.28755365 -9 2 C-8.01 2 -7.02 2 -6 2 C-6 1.34 -6 0.68 -6 0 C-2.25 -1.125 -2.25 -1.125 0 0 Z " fill="#DDDBDE" transform="translate(185,262)"/>
<path d="M0 0 C0.33 0 0.66 0 1 0 C1.3690205 9.41002278 1.3690205 9.41002278 -1 14 C-1.33 12.68 -1.66 11.36 -2 10 C-4.97 10.66 -7.94 11.32 -11 12 C-8 9 -8 9 -5.5 8.8125 C-2.87717377 8.27836884 -2.87717377 8.27836884 -2.01171875 6.1640625 C-1.25694703 4.12510572 -0.58646597 2.09315903 0 0 Z " fill="#3E61BA" transform="translate(385,353)"/>
<path d="M0 0 C0.66 0.33 1.32 0.66 2 1 C0.92130607 1.96355244 -0.16318743 2.92061417 -1.25 3.875 C-1.85328125 4.40867187 -2.4565625 4.94234375 -3.078125 5.4921875 C-4.9971183 6.99773916 -6.74491766 8.07578593 -9 9 C-11.25 8.625 -11.25 8.625 -13 8 C-12.67 7.01 -12.34 6.02 -12 5 C-9.68060793 4.2863409 -7.34476551 3.6252708 -5 3 C-3.6078125 2.1646875 -3.6078125 2.1646875 -2.1875 1.3125 C-1.1046875 0.6628125 -1.1046875 0.6628125 0 0 Z " fill="#A3B9EC" transform="translate(205,256)"/>
<path d="M0 0 C6.27 0.33 12.54 0.66 19 1 C17 3 17 3 13.59375 3.23046875 C12.22909733 3.22647854 10.8644434 3.21172843 9.5 3.1875 C8.81035156 3.18685547 8.12070313 3.18621094 7.41015625 3.18554688 C2.28111049 3.14055525 2.28111049 3.14055525 0 2 C0 1.34 0 0.68 0 0 Z " fill="#856275" transform="translate(240,229)"/>
<path d="M0 0 C0.66 0.99 1.32 1.98 2 3 C0.41792503 4.75115168 -1.16561229 6.50094278 -2.75 8.25 C-3.63171875 9.22453125 -4.5134375 10.1990625 -5.421875 11.203125 C-7.56498967 13.5280797 -9.74365438 15.78582907 -12 18 C-12 13.92856122 -10.45728433 13.03172741 -7.6875 10.125 C-4.63676266 6.91214619 -2.14974739 3.88206811 0 0 Z " fill="#F1D4C3" transform="translate(308,198)"/>
<path d="M0 0 C1.45279835 3.83094597 0.5027187 6.34200346 -0.8125 10.125 C-1.34810547 11.70667969 -1.34810547 11.70667969 -1.89453125 13.3203125 C-3 16 -3 16 -5 18 C-5.96735709 15.42038109 -6.25711679 13.66077682 -5.24609375 11.0625 C-4.53541394 9.67785447 -3.80586015 8.30274795 -3.05859375 6.9375 C-1.83340098 4.69508076 -0.89649036 2.39064096 0 0 Z " fill="#C59078" transform="translate(316,174)"/>
<path d="M0 0 C3.16115776 1.36983503 3.9927092 1.9890638 6 5 C6.1953125 8.13671875 6.1953125 8.13671875 6.125 11.6875 C6.10695313 12.86699219 6.08890625 14.04648438 6.0703125 15.26171875 C6.03550781 16.61716797 6.03550781 16.61716797 6 18 C5.67 18 5.34 18 5 18 C4.70996094 16.67935547 4.70996094 16.67935547 4.4140625 15.33203125 C4.15367187 14.17058594 3.89328125 13.00914062 3.625 11.8125 C3.36976563 10.66394531 3.11453125 9.51539063 2.8515625 8.33203125 C2.10527548 5.41192652 1.19568212 2.76046611 0 0 Z " fill="#F1D6C3" transform="translate(312,133)"/>
<path d="M0 0 C0.99 0.33 1.98 0.66 3 1 C-2.01372252 4.52913975 -5.83543922 6.61471495 -12 7 C-8.96487284 3.4979302 -6.43163286 2.25241798 -2 1 C-1.34 0.67 -0.68 0.34 0 0 Z " fill="#9B656A" transform="translate(281,221)"/>
<path d="M0 0 C0.99 0.33 1.98 0.66 3 1 C1.35 2.32 -0.3 3.64 -2 5 C-1.125 1.125 -1.125 1.125 0 0 Z M-5 6 C-4.34 6.33 -3.68 6.66 -3 7 C-6.625 12.75 -6.625 12.75 -10 15 C-9.42647107 11.12867972 -7.51295648 8.91827204 -5 6 Z " fill="#A6B7E9" transform="translate(146,293)"/>
<path d="M0 0 C0.66 0.33 1.32 0.66 2 1 C-2.62 5.62 -7.24 10.24 -12 15 C-12 10.88043292 -9.80684384 9.21199183 -7.125 6.375 C-6.66480469 5.87226562 -6.20460937 5.36953125 -5.73046875 4.8515625 C-2.29546523 1.14773261 -2.29546523 1.14773261 0 0 Z " fill="#E8D1C7" transform="translate(205,109)"/>
<path d="M0 0 C0 0.33 0 0.66 0 1 C-2.24886238 1.50509208 -4.49913869 2.00389179 -6.75 2.5 C-8.62945312 2.91765625 -8.62945312 2.91765625 -10.546875 3.34375 C-14 4 -14 4 -18 4 C-18 3.34 -18 2.68 -18 2 C-11.88019467 0.59545452 -6.28260706 -0.23268915 0 0 Z " fill="#DAD9DF" transform="translate(232,247)"/>
<path d="M0 0 C1.32 0.33 2.64 0.66 4 1 C2.64978174 5.41889613 0.73884332 7.34345343 -3 10 C-3 9.01 -3 8.02 -3 7 C-2.34 7 -1.68 7 -1 7 C-1.33 5.68 -1.66 4.36 -2 3 C-1.34 3 -0.68 3 0 3 C0 2.01 0 1.02 0 0 Z " fill="#B87767" transform="translate(300,202)"/>
<path d="M0 0 C1.32 0 2.64 0 4 0 C4 1.32 4 2.64 4 4 C4.66 4.33 5.32 4.66 6 5 C6 5.99 6 6.98 6 8 C6.66 8 7.32 8 8 8 C8.33 9.32 8.66 10.64 9 12 C4.33716394 8.48417174 1.27789598 5.96351455 0 0 Z " fill="#AA6D61" transform="translate(194,200)"/>
<path d="M0 0 C1.29474635 3.88423904 0.63372371 5.28699157 -1 9 C-3.625 11.875 -3.625 11.875 -6 14 C-6 12.68 -6 11.36 -6 10 C-5.34 9.67 -4.68 9.34 -4 9 C-2.87293294 6.88984046 -2.87293294 6.88984046 -1.875 4.4375 C-1.34519531 3.19806641 -1.34519531 3.19806641 -0.8046875 1.93359375 C-0.53914063 1.29550781 -0.27359375 0.65742188 0 0 Z " fill="#99ABDB" transform="translate(120,336)"/>
<path d="M0 0 C0.66 0 1.32 0 2 0 C1.9071875 1.11375 1.9071875 1.11375 1.8125 2.25 C2.03094296 5.45383006 2.90250005 6.64031256 5 9 C4.67 9.66 4.34 10.32 4 11 C1.5 9.375 1.5 9.375 -1 7 C-1.375 3.8125 -1.375 3.8125 -1 1 C-0.67 0.67 -0.34 0.34 0 0 Z " fill="#A66562" transform="translate(205,208)"/>
<path d="M0 0 C-0.3125 1.875 -0.3125 1.875 -1 4 C-4.20380017 6.13586678 -5.01939967 6.23132175 -8.6875 6.125 C-9.89986328 6.09792969 -9.89986328 6.09792969 -11.13671875 6.0703125 C-12.05904297 6.03550781 -12.05904297 6.03550781 -13 6 C-13 5.67 -13 5.34 -13 5 C-10.36 5 -7.72 5 -5 5 C-4.87625 4.360625 -4.7525 3.72125 -4.625 3.0625 C-4.41875 2.381875 -4.2125 1.70125 -4 1 C-2 0 -2 0 0 0 Z " fill="#273783" transform="translate(383,365)"/>
<path d="M0 0 C0.99 0.33 1.98 0.66 3 1 C1.77472971 5.05281712 0.30119506 8.44360764 -2 12 C-2.66 11.01 -3.32 10.02 -4 9 C-3.67 8.01 -3.34 7.02 -3 6 C-2.34 6 -1.68 6 -1 6 C-0.67 4.02 -0.34 2.04 0 0 Z " fill="#F3ECE5" transform="translate(438,338)"/>
<path d="M0 0 C0 0.66 0 1.32 0 2 C-2.97 2.66 -5.94 3.32 -9 4 C-9.33 3.01 -9.66 2.02 -10 1 C-6.61981469 -0.04005702 -3.5219721 -0.08004482 0 0 Z " fill="#8F5D6B" transform="translate(268,227)"/>
<path d="M0 0 C1.14926266 0.95421808 2.29430541 1.91352045 3.4375 2.875 C4.07558594 3.40867188 4.71367187 3.94234375 5.37109375 4.4921875 C7 6 7 6 8 8 C5.2980567 7.63487253 3.41609148 7.30130763 1.1875 5.6875 C0 4 0 4 0 0 Z " fill="#EACEC1" transform="translate(194,204)"/>
<path d="M0 0 C0.66 0.33 1.32 0.66 2 1 C2.625 3.5625 2.625 3.5625 3 6 C2.34 6 1.68 6 1 6 C0.67 6.66 0.34 7.32 0 8 C0 7.01 0 6.02 0 5 C-0.99 5 -1.98 5 -3 5 C-1.125 1.125 -1.125 1.125 0 0 Z " fill="#417DD8" transform="translate(377,331)"/>
<path d="M0 0 C0.33 0.66 0.66 1.32 1 2 C0.67 2.99 0.34 3.98 0 5 C-0.66 5 -1.32 5 -2 5 C-2.33 6.65 -2.66 8.3 -3 10 C-3.66 10 -4.32 10 -5 10 C-4.49701212 5.59885603 -2.91227269 3.28804981 0 0 Z " fill="#A7B3E4" transform="translate(128,318)"/>
<path d="M0 0 C0.66 0 1.32 0 2 0 C2 0.66 2 1.32 2 2 C2.99 2 3.98 2 5 2 C7.125 7.625 7.125 7.625 6 11 C4.02 7.37 2.04 3.74 0 0 Z " fill="#D2DAE1" transform="translate(366,305)"/>
<path d="M0 0 C3.465 1.485 3.465 1.485 7 3 C7 3.33 7 3.66 7 4 C3.04 4 -0.92 4 -5 4 C-3.35 2.68 -1.7 1.36 0 0 Z " fill="#3869CF" transform="translate(225,362)"/>
<path d="M0 0 C1.12894876 0.93274109 2.25300876 1.87140122 3.375 2.8125 C4.00148438 3.33457031 4.62796875 3.85664063 5.2734375 4.39453125 C7 6 7 6 9 9 C6.625 8.75 6.625 8.75 4 8 C2.8125 6 2.8125 6 2 4 C1.34 3.67 0.68 3.34 0 3 C0 2.01 0 1.02 0 0 Z " fill="#658DCD" transform="translate(348,285)"/>
<path d="M0 0 C3 1 3 1 4.75 3.9375 C5.1625 4.948125 5.575 5.95875 6 7 C5.67 7.66 5.34 8.32 5 9 C4.34 8.67 3.68 8.34 3 8 C3 7.01 3 6.02 3 5 C2.34 5 1.68 5 1 5 C0.67 3.35 0.34 1.7 0 0 Z " fill="#5780CF" transform="translate(368,311)"/>
<path d="M0 0 C0.99 0.33 1.98 0.66 3 1 C3.33 1.99 3.66 2.98 4 4 C2.625 5.5 2.625 5.5 1 7 C0.34 7 -0.32 7 -1 7 C-1.04254356 5.00045254 -1.04080783 2.99958364 -1 1 C-0.67 0.67 -0.34 0.34 0 0 Z " fill="#5492E5" transform="translate(329,272)"/>
<path d="M0 0 C2.97 0.495 2.97 0.495 6 1 C6.33 1.99 6.66 2.98 7 4 C7.99 4.66 8.98 5.32 10 6 C9.01 6.33 8.02 6.66 7 7 C5.17578125 5.8203125 5.17578125 5.8203125 3.3125 4.125 C2.68988281 3.57070312 2.06726563 3.01640625 1.42578125 2.4453125 C0 1 0 1 0 0 Z " fill="#EFD4C2" transform="translate(292,107)"/>
<path d="M0 0 C-3.06246747 1.78409802 -5.22079273 2.22880021 -8.75 2.125 C-9.54921875 2.10695313 -10.3484375 2.08890625 -11.171875 2.0703125 C-11.77515625 2.04710937 -12.3784375 2.02390625 -13 2 C-9.16001987 -2.17389144 -5.07563763 -0.9001665 0 0 Z " fill="#2546AF" transform="translate(360,369)"/>
<path d="M0 0 C3.375 -0.1875 3.375 -0.1875 7 0 C7.66 0.99 8.32 1.98 9 3 C6 4 6 4 2.8125 2.5625 C1.884375 2.046875 0.95625 1.53125 0 1 C0 0.67 0 0.34 0 0 Z " fill="#DDDADD" transform="translate(306,257)"/>
<path d="M0 0 C-3.75467691 3.05936637 -7.08113061 5 -12 5 C-8.36219404 0.99841344 -5.42711258 -0.30150625 0 0 Z " fill="#9CB4EA" transform="translate(220,253)"/>
<path d="M0 0 C-1.423125 0.61875 -1.423125 0.61875 -2.875 1.25 C-6.00716624 3.0040131 -6.86500606 3.70851757 -8 7 C-8 4.69 -8 2.38 -8 0 C-4.71303767 -0.79953138 -3.28976808 -1.09658936 0 0 Z " fill="#425FBE" transform="translate(123,359)"/>
<path d="M0 0 C0.66 0.33 1.32 0.66 2 1 C2.40729228 3.32156597 2.74438677 5.6568787 3 8 C1.68 8.33 0.36 8.66 -1 9 C-0.67 6.03 -0.34 3.06 0 0 Z " fill="#4784DC" transform="translate(370,320)"/>
<path d="M0 0 C0.66 0.33 1.32 0.66 2 1 C-0.25 3.5625 -0.25 3.5625 -3 6 C-5.3125 5.8125 -5.3125 5.8125 -7 5 C-7 4.34 -7 3.68 -7 3 C-5.5459375 2.5359375 -5.5459375 2.5359375 -4.0625 2.0625 C-1.15934208 1.30476658 -1.15934208 1.30476658 0 0 Z " fill="#B1C0E7" transform="translate(185,263)"/>
<path d="M0 0 C3.25 -0.25 3.25 -0.25 7 0 C8.32 1.32 9.64 2.64 11 4 C7.37 3.01 3.74 2.02 0 1 C0 0.67 0 0.34 0 0 Z " fill="#CAD2E0" transform="translate(293,253)"/>
<path d="M0 0 C5.75 1.75 5.75 1.75 8 4 C4.98968256 4.93423645 4.13349732 5.04449911 1 4 C0.3125 1.9375 0.3125 1.9375 0 0 Z " fill="#DCB49E" transform="translate(272,96)"/>
<path d="M0 0 C0.66 0.66 1.32 1.32 2 2 C1.67 2.99 1.34 3.98 1 5 C-1.0625 5.6875 -1.0625 5.6875 -3 6 C-2.42655063 3.13275314 -2.1385485 2.1385485 0 0 Z " fill="#A1B2E4" transform="translate(132,312)"/>
<path d="M0 0 C0.99 0.33 1.98 0.66 3 1 C3 1.66 3 2.32 3 3 C1.02 3.66 -0.96 4.32 -3 5 C-2.625 3.0625 -2.625 3.0625 -2 1 C-1.34 0.67 -0.68 0.34 0 0 Z " fill="#3251BA" transform="translate(119,360)"/>
<path d="M0 0 C2.31 0.33 4.62 0.66 7 1 C7.33 1.99 7.66 2.98 8 4 C7.01 4 6.02 4 5 4 C5 3.34 5 2.68 5 2 C3.35 2.33 1.7 2.66 0 3 C0 2.01 0 1.02 0 0 Z " fill="#A56977" transform="translate(263,225)"/>
<path d="M0 0 C3.08089673 2.77280706 4.68775452 5.06326356 6 9 C4.125 8.4375 4.125 8.4375 2 7 C0.75 3.375 0.75 3.375 0 0 Z " fill="#F3EFE8" transform="translate(424,132)"/>
</svg>
